<svg version="1.1" id="Layer_1" xmlns="http://www.w3.org/2000/svg" xmlns:xlink="http://www.w3.org/1999/xlink" x="0" y="0" viewBox="0 0 281 97" xml:space="preserve"><path fill="#FFF" d="M3.4 49.5C3.4 65.8 16.6 79 32.9 79s29.5-13.2 29.5-29.5S49.2 20 32.9 20 3.4 33.2 3.4 49.5"/><path fill="#80BA27" d="M65.1 45c-.1-.5-.6-.9-1.7-.9-4.2.1-11.5 5.2-18.7 12.1 5.8 4.7 11.3 8 14.9 8.5 1.3.2 2.1-.1 2.4-.6 2.2-4.4 4.2-11.1 3.1-19.1M21.7 62.5c2.9 2.9 7.1 2.1 9.6-.8 1.5-1.8 3.1-3.5 4.6-5.1-3.5-3.1-6.9-6.5-9.9-9.9-1.9 1.9-3.7 3.8-4.7 4.9-2.3 2.6-3.2 7.2.4 10.9m6.2-26.2c.8-.7.9-1.9.3-2.9-.5-.8-1.8-1.2-2.8-.4-.9.7-1.1 2.1-.2 3.4l1.2 1.5c.6-.8 1.2-1.3 1.5-1.6m29.3 30c-.7 1.1-1.5 2.1-2.4 3-3.8-1.1-9-4.5-14.4-8.9-1.6 1.7-3.2 3.4-4.6 5.1-4.6 5.3-12.3 6.2-17.4 1.9-5.1-4.3-7.5-12.3-1.6-19.6 1-1.2 3.2-3.5 5.4-5.7-.5-.6-1-1.3-1.5-1.9-3.1-4-2.6-9.1 1.4-12.1 3.1-2.3 7.8-2 10.6 1.4 3.3 4.1 1.7 8.8-.8 11.2l-1.7 1.7c3.1 3.4 6.5 6.8 9.9 9.9 7.9-7.6 15.6-12.7 20.1-13.9.5 1.2.9 2.3 1.2 3.6 1.6-1.1 2.5-2.4 2.2-3.1C59.2 26.1 47.1 17 32.9 17 15 17 .4 31.5.4 49.5.4 67.4 15 82 32.9 82c10.6 0 19.9-5 25.9-12.8.5-.7-.3-1.9-1.6-2.9"/><path fill="#80BA27" d="M63.6 38.8c-.1-.4-.6-.7-1.4-.7-.6 0-1.2.1-2 .2.5 1.2.9 2.3 1.2 3.6 1.6-1.1 2.5-2.3 2.2-3.1m-4.8 30.3c.5-.7-.3-1.8-1.6-2.9-.7 1.1-1.5 2.1-2.4 3 .8.2 1.5.4 2.2.4.8.1 1.4 0 1.8-.5"/><path fill="#572542" d="M88.6 26.6c1.5-1.3 3.5-2 5.8-2 1.9 0 3.9.6 4.2.7.2.1.4.1.7.1.8 0 1.6-.5 1.8-1.2.2-.5.2-1-.1-1.5-.2-.5-.6-.8-1.1-1 0 0-2.6-1-5.5-1-7.3 0-12.2 5.1-12.2 12.6s4.9 12.6 12.2 12.6c2.4 0 4.8-.7 5.5-.9 1-.4 1.5-1.5 1.1-2.5-.3-.8-1-1.3-1.8-1.3-.2 0-.5 0-.7.1-.4.1-2.3.7-4.2.7-2.3 0-4.3-.7-5.8-2-1.7-1.5-2.5-3.8-2.5-6.7s.9-5.1 2.6-6.7m21.2-5.5c-1.1 0-1.9.9-1.9 1.9v20.6c0 1.1.9 1.9 1.9 1.9 1.1 0 1.9-.9 1.9-1.9V23c0-1-.9-1.9-1.9-1.9m26.4 0H120c-1.1 0-1.9.9-1.9 1.9 0 1.1.9 1.9 1.9 1.9h6.2v18.7c0 1.1.9 1.9 1.9 1.9 1.1 0 1.9-.9 1.9-1.9V24.9h6.2c1.1 0 1.9-.9 1.9-1.9 0-1-.8-1.9-1.9-1.9m25.5.4c-.3-.2-.7-.4-1.1-.4-.6 0-1.2.3-1.6.8l-6.7 9.3-6.5-9.2c-.4-.5-1-.8-1.6-.8-.4 0-.8.1-1.1.4-.9.6-1.1 1.8-.5 2.7l7.7 10.9v8.6c0 1.1.9 1.9 1.9 1.9 1.1 0 1.9-.9 1.9-1.9v-8.6l7.9-10.9c.8-1 .6-2.2-.3-2.8m-58.4 32.1c-.2-.1-.4-.1-.7-.1-.6 0-1.1.3-1.5.7l-7.6 9.2-7.6-9.2c-.4-.4-.9-.7-1.5-.7-.2 0-.4 0-.6.1-.8.3-1.3 1-1.3 1.8V76c0 1.1.9 1.9 1.9 1.9 1.1 0 1.9-.9 1.9-1.9V60.4l5.7 7.2c.3.4.9.7 1.5.7s1.2-.3 1.5-.7l5.7-7.2V76c0 1.1.9 1.9 1.9 1.9 1.1 0 1.9-.9 1.9-1.9V55.4c0-.8-.5-1.5-1.2-1.8m23.1 15.7h-8l3.9-9.3 4.1 9.3zm-2.5-14.7c-.3-.7-.9-1.1-1.7-1.1-.7 0-1.4.5-1.7 1.1l-8.8 20.7c-.2.5-.2 1 0 1.4.2.4.5.8 1 1 .2.1.5.2.8.2.8 0 1.4-.4 1.7-1.1l1.6-3.9H128l1.7 3.9c.3.7 1 1.1 1.7 1.1.3 0 .5-.1.8-.2.5-.2.8-.6 1-1 .2-.5.2-1 0-1.4l-9.3-20.7zm28.7 19.5h-8.3V55.4c0-1.1-.9-1.9-1.9-1.9-1.1 0-1.9.9-1.9 1.9V76c0 1.1.9 1.9 1.9 1.9h10.2c1.1 0 1.9-.9 1.9-1.9 0-1.1-.8-1.9-1.9-1.9m20.4 0h-8.3V55.4c0-1.1-.9-1.9-1.9-1.9-1.1 0-1.9.9-1.9 1.9V76c0 1.1.9 1.9 1.9 1.9H173c1.1 0 1.9-.9 1.9-1.9 0-1.1-.8-1.9-1.9-1.9m18-9.1l-5.8-2.1c-1.7-.6-2.1-1-2.1-2.8 0-3 3.8-3.2 4.6-3.2 1.4 0 3.9.3 5.2.6.2 0 .3.1.5.1.8 0 1.6-.6 1.8-1.4.1-.5.1-1-.2-1.4-.3-.4-.7-.8-1.1-.9-1.7-.5-4.6-.8-6.3-.8-2.2 0-4.2.6-5.7 1.7-1.7 1.3-2.6 3.1-2.6 5.2 0 4.2 2.4 5.6 4.7 6.4l5.8 2c1.7.6 2.1 1 2.1 2.8 0 3-3.8 3.2-4.6 3.2-1.5 0-4-.3-5.3-.6-.2 0-.3-.1-.5-.1-.9 0-1.6.6-1.8 1.4-.1.5-.1 1 .2 1.4.3.5.7.8 1.2.9 1.8.5 4.7.8 6.3.8 2.2 0 4.2-.6 5.7-1.7 1.7-1.3 2.6-3.1 2.6-5.2-.1-4.1-2.4-5.5-4.7-6.3"/><path fill="#80BA27" d="M222.1 66.3h-5.2v-9h5.3c1.6 0 4.4 1.5 4.4 4.4.1 2.5-2 4.6-4.5 4.6m5.7-10.6c-1.6-1.4-3.6-2.2-5.5-2.2H215c-1.1 0-1.9.9-1.9 1.9V76c0 1.1.9 1.9 1.9 1.9 1.1 0 1.9-.9 1.9-1.9v-5.9h5.2c4.6 0 8.4-3.8 8.4-8.4.1-2.3-.9-4.5-2.7-6m22.7-2.2h-11.2c-1.1 0-1.9.9-1.9 1.9V76c0 1.1.9 1.9 1.9 1.9 1.1 0 1.9-.9 1.9-1.9v-7.3h7.6c1.1 0 1.9-.9 1.9-1.9 0-1.1-.9-1.9-1.9-1.9h-7.6v-7.6h9.3c1.1 0 1.9-.9 1.9-1.9 0-1.1-.9-1.9-1.9-1.9m29.2.1c-.2-.1-.4-.1-.7-.1-.6 0-1.1.3-1.5.7l-7.6 9.2-7.6-9.2c-.4-.4-.9-.7-1.5-.7-.2 0-.4 0-.6.1-.8.3-1.3 1-1.3 1.8V76c0 1.1.9 1.9 1.9 1.9 1.1 0 1.9-.9 1.9-1.9V60.4l5.7 7.2c.3.4.9.7 1.5.7s1.2-.3 1.5-.7l5.7-7.2V76c0 1.1.9 1.9 1.9 1.9 1.1 0 1.9-.9 1.9-1.9V55.4c0-.8-.4-1.5-1.2-1.8"/></svg>