<svg version="1.1" id="Layer_1" xmlns="http://www.w3.org/2000/svg" xmlns:xlink="http://www.w3.org/1999/xlink" x="0" y="0" viewBox="0 0 660 751" xml:space="preserve"><path fill="#FAF8F6" d="M80.4 486.6l2.9 3.4s2.8-1.7 3.9-3.1c1-1.4 1.4-3.4 1.4-3.4l9.9-2s.6.7 1.3 1.4c.7.8.4 4.4.4 5.8 0 1.4.1 5.3.8 7.4s4.9 1.4 6 1c1-.4 1.5-4.7 1.5-6.5 0-1.8 3.9-2.7 5.7-2.3 1.8.4 3.5 3 4.3 4.4.8 1.4 3.9 1.7 7.9 1.5 4-.1 15.7-6.6 15.7-6.6-.9-1.8-6-6.6-6.7-7.4-.8-.8-3.5-1.5-3.5-1.5-.7-5.3 4.4-9.2 4.4-9.2l-1.6-2.1 8.6-5.8-1.9-1.7s-.4-2.8 0-6.5c.4-3.6-5.6-13.1-8.1-16.1-2.5-3-16.1-21-18-24.8l-.6 16.3 6.4 4.3-8.6 9.9-5.2-4.7-15.5 24.9-6-5.2-3.4 6.9-19.8-9.4L75.5 434l2.6 13.7h10.7l-7.3-11.6 2.1-12.5 8.6-8.6-.4 5.6 8.6 1.3s.9-5.1 1.3-8.6c.4-3.4-3.9-8.2-3.9-8.2l13.7-3.9c-2.5-8.7-5.5-19.7-6.7-23.6-1.9-6.4-6.2-22-6.9-26-.7-4-.3-36.2-.3-40.3 0-.9 0-2.8.1-5.3l4.3 4 9-.6 3.7 2s15.8-.8 19.8-2.3l3.7-5.4s16.1 3.7 21.9 2.2c5.8-1.5 10.7-5 14-4.5s5.4 2.6 7.2 6.4c1.7 3.7 3.9 7.9 5 9.9s2.3 4.7 2.2 6.4c-.1 1.7-2.3 8.4-4.5 10.4s-5.7 6.5-9.9 7.3-10.1 3.3-10.7 4c-.6.8-4.8 4.3-.3 8.1 4.5 3.7 12.3 10.9 19.4 7.4 7.1-3.4 16.8-8.8 16.6-21.4-.2-12.6-.5-21.3 2.6-22.5 3.1-1.2 4.8-1.2 4.8-1.2 3.3-.2 7.2-.5 12.3 3.5 5.1 3.9 9.3 6.5 10.9 7.7 1.1.8 3.5 2.3 5.4 4.4.9 1 1.7 2.2 2.1 3.5 0 0 3.4 12.8 5.1 15.4 1.7 2.6 9.3 9.5 16.6 4.2 7.3-5.3 14-11.8 17.5-12.9 3.6-1.1 13-3.1 13.8 3.6.8 6.7.1 14.1-5 20.5s-13.5 13.5-17.4 16.3c-3.9 2.8-9.5 6.7-8.1 14 1.3 6.8 6.8 17.6 16.9 16.8v.1s-19.7 26.1-21.7 28.2c-2 2.2-21.9 21.6-21.9 21.6l11 10.2-14 18.1-47.9 41.6-.2.1-24.7-38.3s-8.2.5-9.6.5c-1.4 0-5.6 1.3-5.6 1.3s-1.4 4.8-.1 6.1c1.3 1.3 2.1 2.3 2.1 2.3s.5 3.4 0 4c-.5.7-2.5 2.7-2.2 3.5.3.8 1 2.2 1 3 0 .8 1.7 1.3 1.7 1.3s-.1 11.7-.1 12.3c0 .7-.5 4.8-1.4 5.5-.9.7-3.4 1.2-3.9 1.8-.5.7-1.2 4-1.2 4l-1.4 6.7c-2.9-1.8-10.3-2.2-10.3-2.2l-.7 3.8c-3.2 1.3-9.1-.5-9.1-.5l.9-4.7-2-.4-9.9 11 1.6 2.1-1.3 1.8-7.5-6.8.4-3.8-2.7-2.3-2.8 1.4-2.7-3.2.5-3.1-3.4-2.3-2.3-.1-5.2-3.1s-2.6 2.5-3.6 3.1c-1 .7-3.8 1.4-3.8 1.4s-3.4-2.1-3.8-2.2c-.4-.1-1-1.9-1.2-2.6-.1-.7-2.5-3.6-3.5-3.9-1-.3-2.2-1.8-2.6-3.4-.4-1.5 1.4-2.8 2.5-4 1-1.2-.5-4.4-1-5.6-.5-1.2 2.6-4.8 3.2-5.7.7-.9 3.5-4.7 4-5.2s3.1-1.6 4-2.3c.9-.8 2.3-1.2 3-2.3.7-1.2-2.2-6-2.7-6.9-.5-.9 1.9-2.2 2.8-3 1-.7 3.1-5.5 3.1-5.5z"/><path fill="#FAF8F6" d="M242 327.6l1.9 2.3 11.9-6.5 1.6-5.6 8.6-10s20.3-3.3 26.5-4c6.3-.7 9.1-9.3 9.1-9.3l2.6-17.9 10-.7L317 288l2.6-.2 7 3.5 2.6-.2s1.6-2.3 1.9-4.4c.2-2.1-.2-11.6-.2-11.6l16.8 2.3.7-10.5s2.6 1.9 4.4 3.3c1.9 1.4 4.9 3 5.6 4.9.6 1.6 1 4.1 4.7 5.8.5.3 1.2.5 1.9.7 5.4 1.6 33.5 10.9 33.5 10.9s9.6-.2 13 .5c3.5.7 5.4 2.1 7.7 6.3.6 1 1.5 2.8 2.6 4.9h-.1l-14.9 14-4.7-4.4-3.5.5s-1.2 4.7-1.9 7-2.1 9.1-2.1 9.1l-10.9.5s-2.3 1.2-1.9 3c.5 1.9 1.6 5.6 1.6 6.5 0 .9-.2 2.3-1.6 4.2l9.8 4.4s12.6 8.8 15.1 11.9c0 0 0 8.4.9 9.6l-4.7 10.7-9.3-8.4.5 4.7-5.6 4.2-8.1 4.4-4-9.5-4.4 2.6s1.4 3.6 2.3 6.6h-.1l-5.3.3s-1.9-3.3-2.8-4l-1.7 1.7-6.2-2.6s-2 7.1-1.9 11l-1.9.6-4.7-2.5-.9 3.4s-1.7-1.7-4-.9c-2.3.8-15.2 4-15.2 4l-.5-1.5-4.2-.6-.6 3.1-8.7-2.9-16.2 19.1c-2.7-3.6-5.7-7.5-5.7-7.5s-3.1 3.9-14.6 6.5c-.7.2-1.5.3-2.2.3-10.1.8-15.6-10-16.9-16.8-1.4-7.3 4.2-11.2 8.1-14 3.9-2.8 12.3-9.9 17.4-16.3 5.1-6.3 5.7-13.8 5-20.5-.8-6.7-10.2-4.7-13.8-3.6-3.6 1.1-10.2 7.6-17.5 12.9-7.3 5.3-14.9-1.5-16.6-4.2-1.7-2.6-5.1-15.4-5.1-15.4-.4-1.3-1.2-2.5-2.1-3.5l.2-.2 6.4-4.1z"/><path fill="#FAF8F6" d="M559.7 445.3l4 4.9-7.9 23.5-22.2-18.2s5.6 24.9 6.6 30.1c1 5.2 4.3 17.3-5.8 29.9-10.1 12.6-30.5 35.5-31.8 37-.6.7-2.7 2.8-4.9 4.9-2.1-1.5-5.9-5.1-6.6-8.7-.7-3.7-3.5-12.8-3.5-16.1s0-11.9.2-16.5c.2-4.7-2.6-2.1-5.4-1.6-2.8.5-24.4 11.4-28.2 12.8-3.7 1.4-14.7 0-17.9-.5-3.3-.5-10.9 2.1-14.2 2.3-3.3.2-14.7-4.9-18.9-7.2S382 505.4 382 505.4s1.9-18.2 3.3-22.1c1.4-4 24.7-14.4 30.9-17.9 6.3-3.5 4.9-14 3.3-18.6-1.6-4.7-11.6-9.3-14.7-10.7-3-1.4-15.4-3.3-17.5-3.7-2.1-.5-2.8-.9-3.5-2.3-.7-1.4-5.8-2.3-5.8-2.3s.5-3.9.7-6.5c.2-2.6-2.1-14.7-2.8-19.1-.7-4.4-1.2-10.9-1.2-13.3 0-.7-.3-2-.7-3.5-.9-3-2.3-6.6-2.3-6.6l4.4-2.6 4 9.5 8.1-4.4 5.6-4.2-.5-4.7 9.3 8.4 4.7-10.7c-.9-1.2-.9-9.6-.9-9.6-2.6-3-15.1-11.9-15.1-11.9l-9.8-4.4c1.4-1.9 1.6-3.3 1.6-4.2 0-.9-1.2-4.7-1.6-6.5-.5-1.9 1.9-3 1.9-3l10.9-.5s1.4-6.8 2.1-9.1c.7-2.3 1.9-7 1.9-7l3.5-.5 4.7 4.4 14.9-14h.1c3.2 6.2 7.5 15.5 6.5 18.7-1.4 4.2-6.3 18.8 1.6 22.8 7.9 3.9 16.8 8.8 19.3 11.9 2.6 3 5.8 7.4 7.7 7.7 1.9.2 9.5 2.1 12.8 4.4 3.3 2.3 16.1 13.5 19.6 15.1 3.5 1.6 26.5 15.8 30.5 17.7 3.9 1.9 33.7 21.9 39.1 27l-2.1 2.6 6.6 8.7-3.4 4.9zm77.5-50.7l1.7 8.2 8.3-1.7s2.8 5 6.1 5 9.4 2.2 6.6 4.4c-2.8 2.2-6.1 2.2-3.9 5 2.2 2.8 3.3 5 3.3 5l-21-3.9s0 6.1 3.9 7.7c3.9 1.7 11.6 4.4 11.6 8.3l-14.4 2.8s0 3.9 3.3 6.1c3.3 2.2 9.9 3.3 9.9 7.7s-.5 8.3 0 12.7c.6 4.4 2.8 12.7 2.8 12.7s-13.3-5-19.3-4.4c-6.1.5-24.9 0-24.9 0s0-7.7-2.2-8.3c-2.2-.6-5.5-5-2.8-8.3 2.8-3.3 4.4-4.4 6.1-6.1 1.7-1.7 7.7-13.8 3.9-12.1-3.9 1.6-7.7 8.3-7.7 3.9s.6-11.6.6-11.6l-8.8-.5-.5-7.7v-.1s8.8 0 13.2-2.2c4.4-2.2 5.5-9.9 6.1-14.4.6-4.4 9.9-2.2 9.9-2.2l6.6-8.3.3-.2c.6 1 1 1.9 1.3 2.5z"/><path fill="#FAF8F6" d="M309.5 633.8l-16.9-7.1 3.6-9.6-1.7-3.3 1.7-11.8c2.2-.2 2.8-3.4 2.8-3.4l-3.1-1.1 2-9.6-2.8.2-2.3-3.7s-.9.5-1.7.6c-.8.1-.6-1.2-1.7-3.4s2.3-2.3 4-2.6c1.7-.3.6-5.4.6-6.4s.3-1.2 1.1-1.7.6-1.4.6-2.5.5-1.9.9-2.5-.1-1.1-1.1-1.4c-.9-.3-.2-1.7.1-2.9.3-1.2-1.7.5-2.9.5s.3-3 .9-4c.6-1.1 4.3-1.9 4.3-1.9l5.1-14.1-8.2-2 .5-2.9 3-3.4s.1-.6 1.1-4.5c.9-3.9-3.3-6.1-3.3-6.1l1.4-2.8s8.2 4.5 10.9 5.6c2.6 1.1 12.4.8 12.4.8l-.1-24.5 7.1-11.3c-2.2-.2-6.4-1.9-6.4-1.9l.9-2.8 3.9.5-4.5-4.8-.1-3.7s-.6-.5-1.2-1.5c-.6-1.1 0-2 .1-3.1.2-1.1 4.4-3.9 5.1-4.8.8-.9.9-2.2 1.1-3.1.1-.9 2.5-3.6 2.5-3.6l-1.5-6.5-4.4.8-3.6-2 .3-7.1c-1.4-1.1-7.6-9.2-9-12.6-1.4-3.4-6.4-12.4-7.3-14.3-.4-.8-2.3-3.4-4.4-6.2l16.2-19.6 8.7 2.9.6-3.1 4.2.6.5 1.5s12.9-3.3 15.2-4c2.3-.8 4 .9 4 .9l.9-3.4 4.7 2.5 1.9-.6c-.1-3.9 1.9-11 1.9-11l6.2 2.6 1.7-1.7c.9.8 2.8 4 2.8 4l5.3-.3h.1c.4 1.4.7 2.7.7 3.5 0 2.3.5 8.8 1.2 13.3.7 4.4 3 16.5 2.8 19.1-.2 2.6-.7 6.5-.7 6.5s5.1.9 5.8 2.3c.7 1.4 1.4 1.9 3.5 2.3 2.1.5 14.4 2.3 17.5 3.7 3 1.4 13 6.1 14.7 10.7 1.6 4.7 3 15.1-3.3 18.6-6.3 3.5-29.5 14-30.9 17.9-1.4 3.9-3.3 22.1-3.3 22.1s17 14.2 21.2 16.5 15.6 7.4 18.9 7.2c3.3-.2 10.9-2.8 14.2-2.3 3.3.5 14.2 1.9 17.9.5 3.7-1.4 25.4-12.3 28.2-12.8 2.8-.5 5.6-3 5.4 1.6-.2 4.7-.2 13.3-.2 16.5s2.8 12.3 3.5 16.1c.7 3.6 4.5 7.3 6.6 8.7-2.4 2.3-4.9 4.7-5.7 5.3-1.5 1.3-38 36.7-51.9 46s-46 30.6-46 30.6-5.3 5.1-15.2 4.3c-9.9-.8-56-4.3-56-4.3-1.4-.3-13.6-5.7-13.6-5.7zm276-403s2.7.4 5.2 1.2c2.5.8 4.9 1.2 4.9 5.3 0 4.2-4.5 3.8-5.4 3.6-.9-.1-.1-1.3 0-2.6s-1.2-1.4-2.1-2.3c-.9-.9-6.5 0-7.9 0-1.4 0-2.1 7-2.1 7l-6.5 3.1-.3 3.1-2.5.8.3 2.1-4.8 1.6-4.4-4.7-4.3 4.3-10.5-11.7 10.1-7.9s1-1.3 2-2.2c.9-.9 9.9-4.2 9.9-4.2l-.5-4 6.1-2.6 1 1.8s-3.9 1.7-4.3 3.1c-.4 1.4 1.7 4 1.7 4l5.5-1 .9 2.3 7.4-2.5.6 2.4z"/><path fill="#FAF8F6" d="M400.1 175l-5.2-3 2.4-3.4 5.1 1.9 1.8 3.7-1.4 1.5 2.7 3.1c-3.1 2-.2 5.3-.2 5.3l3.4-1.5 3.4 1.6 9.7 1.1.8-.8 3.4-3.7c3.4-3.7 2.1-10.7 1.7-13-.3-2.3-.9-6.5-.9-6.5l-18.3-.1 8.2-6.6-1.2-1.4 12-11.7-1.9-1.4 1-2.2 5.2 3.4 6.1-2.7-.5-3.3 4.1-4.1c14.3 13.3 43.8 40.7 43.8 40.7l42.8 39.1s10.4 10.5 11.4 20.9c1 10.4 4.4 74.1 4.4 74.1s.3 12.3.1 16c-.1 3.6 1 33.9 1 33.9s23.4-1.8 34.3-8.4l6.5 2.2 1.7 10-9.9-.9-5.7 7s-7.1.7-9.9 4c-2.8 3.3-8.3 15.5-5 18.2 3.3 2.8 9.4 4.4 9.4 4.4l8.9.2-.4 3.5 7.7.5.4-3.8 1.6-2.6 1.8 2.1 2.9-1.4 4.7-.4 8.2-3.2 1.3 1.3s6.6-2.5 7.1-4.2c.5-1.7 1.2-5.3 2.5-5.8s5.1-1 5.1-1 8 3.5 10.3 5.5c1.7 1.5 5.4 5.9 7.5 9.2l-.3.2-6.6 8.3s-9.4-2.2-9.9 2.2-1.7 12.1-6.1 14.4c-4.4 2.2-13.2 2.2-13.2 2.2v.1c-3.9.7-8.8 1.9-9.7 1.9-1.4 0-5.2.1-6 .8-.8.7-14.4 16.4-14.4 16.4l-10.8-9.5-.2.3c-5.4-5.1-35.2-25.1-39.1-27-4-1.9-27-16.1-30.5-17.7-3.5-1.6-16.3-12.8-19.6-15.1-3.3-2.3-10.9-4.2-12.8-4.4-1.9-.2-5.1-4.7-7.7-7.7-2.6-3-11.4-7.9-19.3-11.9s-3-18.6-1.6-22.8c1-3.1-3.3-12.4-6.5-18.7-1.1-2.1-2-3.8-2.6-4.9-2.3-4.2-4.2-5.6-7.7-6.3-3.5-.7-13-.5-13-.5s-28.2-9.3-33.5-10.9c-.7-.2-1.3-.4-1.9-.7v-17.3s11.4-25 12.3-27.2c.9-2.2 5.2-11.4 6.2-15 .9-3.6-.2-22.6-.2-22.6 1.4.9 3.7.5 5.4-.5 1.6-.9 2-4.8 2-4.8l12.3-12.1-3.4-2.2 2.5-4.3zM83.3 300.6c-.1.9.3 4.9.1 5.6-.1.7-.9 1.7-1.4.9-.5-.8-2.1-2.6-2.8-2.1-.8.5-2.2 1.6-2.2 2.1s-.1 3.8.7 3c.8-.8.9-1.4 1.7-1.3.8.1 1.5-.3 1.3 1-.3 1.3-.8 3.1-.8 3.1l-3.1.9v2l-7.1-1 1.8-2.6-6.4-1.3.3 6.5-17.2 2.4s-.4-2.6-.9-5.6c-.4-3 5.6-2.2 5.6-2.2s0-5.6.9-9c.9-3.4 9.4-4.3 9.4-4.3l1.7-4.3-21-9.9.9-6.9-9.5-.4.4-7.3-3.4-.9v-15l37.8 3.9s11.6-12 15.5-14.2c3.9-2.1 12.5 0 15.5 0s6 5.6 6 5.6l2.6-3.9 6.5-.8c2.5-12.6 5.1-31.1 5.1-31.1-5-2.2-13.3-.3-13.3-.3s-2.4 1-4.9 1.9c-2.4.9-7.3 6.4-8.3 8.3-1 1.9-1.7 3.1-3.1 3.7-1.4.5-3.6-5.7-3.6-5.7l-2.6.3s.7 3.8-.2 5.4c-.9 1.5-2.9.2-3.6-.9-.7-1 .2-4.2.2-5.9 0-1.7-5-1.4-5-1.4l2.8-4.5-1.6-5.7-5.2-.4-.2-3.3 4.7-2.4s-3.6-3.1-4.5-4c-.9-.9-.5-3.1-.5-4.2 0-1 7.1-3.8 7.1-3.8-3.1-2.6-14-3.3-14-3.3l-.2-2.8s2.4-.9 3.8-1.6c1.4-.7 1.7-3.5 2.6-5.2.9-1.7.7-9.9.9-11.8.2-1.9 4-5 5-5.5s.4-1.4.7-2.4c.3-1 5-.5 6.2-.5s2.9-.3 4.7-.5c1.7-.2.9-4.7 1.2-5.4.4-.7 5.7-1.7 7.1-1.7 1.4 0 3.8.9 4.3.9s5.5-1.2 5.5-1.2l1.9 1.9s-.4 1.6-1.2 3.1c-.9 1.6.9 2.4 1.2 3.1.3.7-.4 1.7-1.2 2.6-.9.9 1.2 2.9 1.5 3.8.4.9-2.6 1.9-3.5 2.6-.9.7-.3 3.3-.2 4.7.2 1.4.7 1.7 2.3 1.9 1.6.2 3.1-.9 3.6-1.2.5-.3.9 0 2.8.5s1.2-.9 1.7-1.5c.5-.7 1.9.7 2.3 1.5.3.9 3.6-1.4 3.6-1.4s1.2-3.6 3.6-10.7c2.4-7.1 13.2-16.3 13.2-16.3l-6.1-5.7s-.3-1.7-.3-2.9-2.1-.2-2.6.3-3.1.9-4.3.7c-1.2-.2-3.5-1.2-4.3-2.1-.9-.9-2.1-.2-3.3-.2s-6.4-1-6.4-1-1.2-1.4-1.7-2.3c-.5-.9-4.5-.9-5.4-2.1-.9-1.2-2.4-2.9-3.5-4.8-1-1.9 1.7-3.5 2.4-4s.5-2.4-.2-3.3c-.7-.9-1.2-2.4-1.2-3.3 0-.9 2.4-2.9 3.6-4 1.2-1 .2-2.3-1-3.6-1.2-1.4-4.8.3-6.2.7-1.4.4-2.4-3.5-2.4-4s.9-1.9 1.6-2.6c.7-.7-2.3-2.8-3.5-3.6-1.2-.9-1.6-2.4-1-3.1.5-.7 6.6-2.4 6.6-2.4l.2-2.4-2.8-.9-1.2-2.6 3.3-2.4v-.1h.1l7.2-4.5.7-2.5 4.9-3-.9 3.4 7.9.5-.1 11.8s-.1 3.9 3.1 4.7c3.2.8 3.9 1 3.9 1l5.8 14.9s.6 2.6.5 4c-.1 1.4-.4 4.8 1.4 6.1 1.8 1.3 3.6 2.5 3.6 2.5l-.3 6.9 5.6 2.2.9 1.8 10.4 1.6 6.6-3 1 2.5 1.5-.6.1.3s8.5 10.4 10.7 11.5c2.2 1.1 4.5 2 4.5 2s0 6.8.8 8.8c.8 2 22.3 54.3 22.3 55.9 0 1.6-.1 3.9-3.3 4.2l2.5 3.3 12.3-.6 2.2 4.8s-7.6 6.1-6.5 13.5c1.1 7.4 3.3 10.7 3.9 12.4.6 1.7 10.9 21.4 12.1 28.2 1.2 6.8 2.3 21.1 3.9 24.7 1.5 3.6 13.4 25.8 13.4 25.8l-6.5 4.2-.2.2c-1.8-2.1-4.3-3.6-5.4-4.4-1.6-1.2-5.8-3.7-10.9-7.7-5.1-4-9.1-3.7-12.3-3.5 0 0-1.7-.1-4.8 1.2-3.1 1.2-2.8 9.9-2.6 22.5.1 12.6-9.5 18-16.6 21.4-7.1 3.4-14.9-3.7-19.4-7.4-4.5-3.7-.3-7.3.3-8.1.6-.8 6.5-3.3 10.7-4s7.8-5.3 9.9-7.3c2.2-2 4.4-8.7 4.5-10.4.1-1.7-1.1-4.3-2.2-6.4-1.1-2-3.3-6.2-5-9.9-1.7-3.7-3.9-5.9-7.2-6.4s-8.2 3-14 4.5c-5.7 1.5-21.9-2.2-21.9-2.2l-3.7 5.4c-4 1.5-19.8 2.3-19.8 2.3l-3.7-2-9 .6-4.3-4c.2-8.2.8-22.1.8-22.1l-7.1 4.8-.7 3.6c0 .1-7.4 7.2-7.5 8.1z"/><path fill="#FAF8F6" d="M279.2 11.2l1.8 16.1 4.8.5.3 9.1-2.8 1.4-.5 3.2-3.9.5s.3 8.3-.8 14.2c-1 5.8-4 23.6-4 23.6s17.7-4.3 25.1-2.6c7.3 1.8 34.8 15.8 40 17.7 5.2 1.8 25.7 8.2 43.8 8.7 18 .5 25.3 1.4 29 3.4 3.6 2 19.3 14.5 22.1 17.3.6.6 3.4 3.2 7.4 7l-4.1 4.1.5 3.3-6.1 2.7-5.2-3.4-1 2.2 1.9 1.4-12 11.7 1.2 1.4-8.2 6.6 18.3.1s.6 4.2.9 6.5c.4 2.3 1.6 9.3-1.7 13l-3.4 3.7-.8.8-9.7-1.1-3.4-1.6-3.4 1.5s-2.9-3.4.2-5.3l-2.7-3.1 1.4-1.5-1.8-3.7-5.1-1.9-2.4 3.4 5.2 3-2.8 4.1 3.4 2.2-12.3 12.1s-.4 3.8-2 4.8c-1.6.9-4 1.4-5.4.5 0 0 1.2 19 .2 22.6-.9 3.6-5.2 12.8-6.2 15-.9 2.2-12.3 27.2-12.3 27.2v17.3c-3.6-1.7-4-4.2-4.7-5.8-.7-1.9-3.7-3.5-5.6-4.9-1.9-1.4-4.4-3.3-4.4-3.3l-.7 10.5-16.8-2.3s.5 9.6.2 11.6c-.2 2.1-1.9 4.4-1.9 4.4l-2.6.2-7-3.5-2.6.2-2.8-12.1-10 .7-3.9-4.9s-.1-7.7-.2-10.4-3-11.5-3-11.5l6.6-1.9-6.6-4.6s-2-9.3-2.5-11.7c-.5-2.4-2-5.1-2.4-6.6-.4-1.5.4-10.5.4-14.3 0-3.7 3.5-14.9 3.5-14.9-.6-1.7-4.5-16.1-5-18.6s-.2-14.5-.1-16.4c.1-1.9-4.5-21.4-5.1-24.9-.6-3.5-2.1-20.8-2.7-25.1-.6-4.2-7.6-8.1-7.6-8.1s-.5.1-1.1.1c-.6 0-2.6-2.5-3.5-3.2-.9-.7-12.5-8.2-12.5-8.2l-3-7.9L239 26.1l23.4-4.9L257.3 7l12.2-3 4.5 4.5L288.3.2l2.3 4 3.6-.4s4.7 9.1-1.2 9c0 0-3-.1-4.4-1.3-.9-.9-9.4-.3-9.4-.3z"/><path fill="#FAF8F6" d="M300.2 271.7l3.9 4.9-2.6 17.9s-2.8 8.6-9.1 9.3c-6.3.7-26.5 4-26.5 4l-8.6 10-1.6 5.6-11.9 6.5-1.9-2.3s-11.8-22.3-13.4-25.8c-1.5-3.6-2.6-17.9-3.9-24.7-1.2-6.8-11.5-26.5-12.1-28.2-.6-1.7-2.8-5-3.9-12.4s6.5-13.5 6.5-13.5l-2.2-4.8-12.3.6-2.5-3.3c3.1-.3 3.3-2.6 3.3-4.2 0-1.5-21.6-53.8-22.3-55.9-.8-2-.8-8.8-.8-8.8s-2.3-.9-4.5-2-10.7-11.5-10.7-11.5l-.1-.3 1.1-.4 3.2-7.7c20.9 3 33-6.2 37.3-8.8 4.3-2.6 30.3-21.4 38.6-27.5 8-5.8 11.8-4.8 12.1-4.7l3 7.9s11.7 7.4 12.5 8.2c.9.7 2.8 3.2 3.5 3.2.6 0 1.1-.1 1.1-.1s6.9 3.9 7.6 8.1c.6 4.2 2.1 21.6 2.7 25.1.6 3.5 5.2 23.1 5.1 24.9-.1 1.9-.4 13.9.1 16.4.5 2.5 4.4 16.9 5 18.6 0 0-3.5 11.2-3.5 14.9 0 3.7-.7 12.8-.4 14.3.4 1.5 1.9 4.2 2.4 6.6.5 2.3 2.5 11.7 2.5 11.7l6.6 4.6-6.6 1.9s2.8 8.8 3 11.5c.2 2.5.3 10.2.3 10.2zM78.1 5.2l3.6 4.5 2.4.7 4.3-7.6 14.5.4 2.4 1s-.7 1.9-1 2.9c-.4 1 5.2 4.7 6.8 4.5 1.5-.2.7-1 .7-2.6s.9-.9 2.3-.7c1.4.2.9-.2 1.4-1 .5-.9.9.2 2.8 1.4s1.2.9 2.3 1c1 .2.5 1.6-.2 2.8-.7 1.2.2 1.9 1.9 2.8 1.7.9 3.6-1.7 4.7-2.4 1-.7 5-1.6 7.1-2.1 2.1-.5 1-2.8.9-4-.2-1.2 2.1-.3 2.8.5.7.9 2.1-1 2.1-1l3.4-.3 3.8 4.5.9 1.3v5.5l-3.1.1s-1.6 3.5-6 3.2l-5.2 12.9s4.2 8.6 3.8 10.2c-.4 1.7-1.5 4.8-1 5.7.5.9 2.1 4.9 1.7 5.6-.4.7-2.1 3-3.4 2-1.3-1-2-2.7-2-2.7l-6.6-.7-3.1 7.8 5.6 8-9.3 6.8v.2l-7.9-.5.9-3.4-4.9 3-.7 2.5-7.2 4.5h-.1c-.2-.8-2.1-8.5-3.1-10.1-1-1.7 3.5-4 3.5-4l-.7-2.3c1.4-1.7 8-4 8-4L86.9 47.4s-5.4 4.3-6.2 5c-.9.7-3.5 1-5.2.5-1.7-.5-1.2-2.3-1.5-3.8-.4-1.6-6.6-7.6-6.6-7.6l1.2-5.4 6.6-5.5 6.1 3.8 2.9-3.3-10-11.6h-2.4l-3.1-8.1.1-5.4 5.4-4.5 6.2-.7 1 2.1-3.3 2.3z"/><defs><path id="SVGID_1_" d="M329.2 637.5l-23.3-2.8-43.5-18.4-30.5-14.4-8.1-7.2-11.9-17-33.3-51.2 71.2-150.8s146.2 60.7 147.6 62.9 13 118.1 12.6 126.5-80.8 72.4-80.8 72.4z"/></defs><clipPath id="SVGID_2_"><use xlink:href="#SVGID_1_" overflow="visible"/></clipPath><g clip-path="url(#SVGID_2_)"><path fill="#FAF8F6" d="M269.9 751.8c-1.2 0-5.6 1.8-6.2 2.1-.7.3-3-.1-3.5-.4-.5-.3-1.6.5-2.1.5s-3.1-1.3-3.9-1.6c-.8-.3-.9.9-2 1.8-1 .9-1.5.4-2.5.1-.9-.3 0-5.5 0-6.4 0-.9 4.9-.7 4.9-.7s.5-3.1.5-3.9c0-.8 1.2-1.5 2.2-2.1 1-.5 1.3-4.2 1.3-4.2s-8.4-8.6-9.2-9.7c-.8-1.2-4-1.8-5.5-2.2-1.4-.4-2.7-1.6-3.1-2.1-.4-.5-1.3-2.7-2.1-3.5-.8-.8-6.6-2.6-7.9-2.7-1.3-.1-7.7-.4-9.7-.4-2.1 0-6.6-2.6-7.7-3.2-1-.7-3.5-.9-4.7-.9-1.2 0-3 2.6-4.3 3.5-1.3.9-2.6.8-3.5.1-.9-.7-.5-4.5-.5-5.3 0-.8-1.4-2.6-2.1-3.2-.7-.7-.1-2.5.5-4 .7-1.6 1.2-4.7 1.2-4.7s5.5-2.2 6.6-2.6c1.2-.4 2.5-.8 4.2-.8 1.7 0 7-.7 10.5-2.2 3.5-1.6 8.8-5.1 10.1-6.9 1.3-1.8 3.1-4.9 4-5.8.9-.9 13.5-10.9 13.5-10.9s10.4 4 14 4.9c3.6.9 7-4 7-4l1.3.1 2.6-10.8-3.6-1.3-.8-2.1 1.7-1.2-.5-6.4s-2.7-1.6-3.2-1.8c-.5-.3-.4-1.9-.4-1.9s-2.1-.9-3.1-1c-1-.1-6.2-3-7-3.5-.8-.5.7-2.1 1.7-2.5 1-.4-1.3-4.4-1.7-5.6-.4-1.2 2.6-1.7 3.5-1.5.9.1 3.6.8 4.7.7 1-.1 2.2-1.4 2.8-2.3.7-.9 3 .9 3.2 1.6.3.7 2.1-.5 2.3-1.3.3-.8-1.6-1.7-2.6-1.8-1-.1-2.7-2.8-2.8-3.5-.1-.7-1-1.8-1.7-2.2-.6-.4-.6-.9-1-1.4-.4-.5-1.3-2.2-1.3-2.2s-16.5-7.1-26.2-11.4c-9.7-4.3-17.7-14.5-17.7-14.5l-38.4-59.5.2-.1 47.9-41.6 14.3-17.8-11-10.2S253 444 255 441.8c2-2.2 21.7-28.2 21.7-28.2v-.1c.7-.1 1.4-.2 2.2-.3 11.5-2.6 14.6-6.5 14.6-6.5s3 3.8 5.7 7.5c2.1 2.8 4 5.4 4.4 6.2.9 1.9 5.9 10.9 7.3 14.3 1.4 3.4 7.6 11.5 9 12.6l-.3 7.1 3.6 2 4.4-.8 1.5 6.5s-2.3 2.6-2.5 3.6c-.2.9-.3 2.2-1.1 3.1-.8.9-5 3.7-5.1 4.8-.1 1.1-.8 2-.1 3.1.6 1.1 1.2 1.5 1.2 1.5l.1 3.7 4.5 4.8-3.9-.5-.9 2.8s4.2 1.7 6.4 1.9l-7.1 11.3.1 24.5s-9.8.3-12.4-.8c-2.6-1.1-10.9-5.6-10.9-5.6l-1.4 2.8s4.2 2.2 3.3 6.1c-.9 3.9-1.1 4.5-1.1 4.5l-3 3.4-.5 2.9 8.2 2-5.1 14.1s-3.7.8-4.3 1.9c-.6 1.1-2.2 4-.9 4 1.2 0 3.3-1.7 2.9-.5-.3 1.2-1.1 2.6-.1 2.9.9.3 1.5.8 1.1 1.4s-.9 1.4-.9 2.5.1 2-.6 2.5c-.8.5-1.1.8-1.1 1.7s1.1 6.1-.6 6.4c-1.7.3-5.1.5-4 2.6 1.1 2.2.9 3.6 1.7 3.4.8-.1 1.7-.6 1.7-.6l2.3 3.7 2.8-.2-2 9.6 3.1 1.1s-.6 3.3-2.8 3.4l-1.7 11.8 1.7 3.3-3.6 9.6 16.9 7.1 5.4 10.7v3.7l2.2-.3.2-.1c1 2.9 2.3 6.2 2.3 6.2s-11.2 8-12.2 9.9c-1 1.8-2.7 6-3.3 9.3-.5 3.4-3.9 26.9-4 27.5-.1.7-3.6 25.8-3.6 25.8s2.7 1.6 3.4 2.6c.7 1 13.4 17.7 13.4 17.7l-.4 4.3 6.6 6-.9 2.6.2 4-2.8 2.8-.5 2.1-5.6 4.5-1.7-2.3-2 1.3 1.3 3.5-18.4-13.6 5.2-28.8-13.4.1c-5.6 10-16.6 6.6-17.4 6.4l12.4 8-1.3 3.9c.2.2-3.5.3-4.6.3z"/></g><path fill="#FAF8F6" d="M559.9 249l4.4 4.7 4.8-1.6-.3-2.1 2.5-.8.3-3.1 6.5-3.1s.7-7 2.1-7c1.4 0 7-.9 7.9 0 .9.9 2.2 1 2.1 2.3-.1 1.3-.9 2.5 0 2.6.9.1 5.4.5 5.4-3.6 0-4.2-2.5-4.5-4.9-5.3-2.5-.8-5.2-1.2-5.2-1.2l-.7-2.3-7.4 2.5-.9-2.3-5.5 1s-2.1-2.6-1.7-4c.4-1.4 4.3-3.1 4.3-3.1l-1-1.8-6.1 2.6.5 4s-9 3.2-9.9 4.2c-.9.9-2 2.2-2 2.2l-10.1 7.9 10.5 11.7 4.4-4.4zm93.3 157.1c-3.3 0-6.1-5-6.1-5l-8.3 1.7-1.7-8.2c-.2-.7-.7-1.5-1.3-2.5-2.1-3.3-5.8-7.7-7.5-9.2-2.2-2-10.3-5.5-10.3-5.5s-3.8.5-5.1 1c-1.3.5-2 4.2-2.5 5.8-.5 1.7-7.1 4.2-7.1 4.2l-1.3-1.3-8.2 3.2-4.7.4-2.9 1.4-1.8-2.1-1.6 2.6-.4 3.8-7.7-.5.4-3.5-8.9-.2s-6.1-1.7-9.4-4.4c-3.3-2.8 2.2-14.9 5-18.2 2.8-3.3 9.9-4 9.9-4l5.7-7 9.9.9-1.7-10-6.5-2.2c-10.9 6.6-34.3 8.4-34.3 8.4s-1.2-30.2-1-33.9c.1-3.6-.1-16-.1-16s-3.4-63.8-4.4-74.1c-1-10.4-11.4-20.9-11.4-20.9l-42.8-39.1s-29.6-27.4-43.8-40.7c-4-3.7-6.8-6.4-7.4-7-2.7-2.7-18.4-15.3-22.1-17.3-3.6-1.9-10.9-2.8-29-3.4-18-.5-38.6-6.9-43.8-8.7-5-1.6-32.5-15.6-39.9-17.3-7.4-1.7-25.1 2.6-25.1 2.6s3-17.8 4-23.6c1-5.8.8-14.2.8-14.2l3.9-.5.5-3.2L286 37l-.3-9.1-4.8-.5-1.8-16.1s8.4-.7 9.9.5c1.4 1.2 4.4 1.3 4.4 1.3 5.8.1 1.2-9 1.2-9l-3.6.4-2.3-4-14.3 8.3-4.5-4.5-12.2 3 5.1 14.2-23.4 5.1L255.5 84c-.3 0-4.1-1.3-12.1 4.5-8.3 6.1-34.3 24.9-38.6 27.4-4.3 2.6-16.3 11.8-37.3 8.8l-3.2 7.6-1.1.4-1.5.6-1-2.5-6.6 3-10.4-1.6-.9-1.8-5.6-2.2.3-6.9s-1.8-1.2-3.6-2.5-1.6-4.7-1.4-6.1c.1-1.4-.5-4-.5-4l-6-14.8s-.7-.3-3.9-1c-3.3-.8-3.2-4.7-3.2-4.7l.1-11.9v-.2l9.4-6.8-5.6-8 3.1-7.8 6.6.7s.7 1.7 2 2.7c1.3 1 3-1.3 3.4-2 .4-.7-1.2-4.7-1.7-5.6-.5-.9.6-4 1-5.7.4-1.7-3.8-10.2-3.8-10.2l5.2-12.9c4.4.3 6.1-3.2 6.1-3.2l3.2-.1v-5.5l-1-1.3-3.8-4.5-3.4.3s-1.4 1.9-2.1 1c-.7-.9-2.9-1.7-2.8-.5.2 1.2 1.2 3.5-.9 4s-6.1 1.4-7.1 2.1c-1 .7-2.9 3.3-4.7 2.4-1.7-.9-2.6-1.6-1.9-2.8.7-1.2 1.2-2.6.2-2.8-1-.2-.4.2-2.3-1s-2.3-2.3-2.8-1.4c-.5.9 0 1.2-1.4 1-1.4-.2-2.3-.9-2.3.7s.9 2.4-.7 2.6c-1.6.2-7.1-3.5-6.8-4.5.4-1 1-2.9 1-2.9l-2.4-1-14.2-.4-4.3 7.6-2.4-.7-3.6-4.5 3.3-2.3-1-2.1-6.2.7L68.8 6l-.2 5.6 3.1 8.4h2.4l10 11.4-2.9 3.2-6.1-3.9-6.6 5.5-1.2 5.3s6.2 6 6.6 7.6c.3 1.6-.2 3.3 1.5 3.8s4.3.2 5.2-.5c.9-.7 6.2-5 6.2-5l19.9 14.7s-6.6 2.3-8 4l.7 2.3s-4.5 2.3-3.5 4c1 1.6 2.9 9.4 3.1 10.1v.1L95.9 85l.9 2.8 2.8.9-.2 2.3s-6.1 1.7-6.6 2.4-.2 2.3 1 3.1c1.2.9 4.2 2.9 3.5 3.6-.7.7-1.6 2.1-1.6 2.6s1 4.3 2.4 4c1.4-.4 5-2.1 6.2-.7 1.2 1.4 2.3 2.6 1 3.6-1.2 1-3.6 3.1-3.6 4 0 .9.5 2.4 1.2 3.3.7.9.9 2.8.2 3.3s-3.5 2.1-2.4 4c1 1.9 2.6 3.6 3.5 4.8.9 1.2 4.8 1.2 5.4 2.1.5.9 1.7 2.3 1.7 2.3s5.2 1 6.4 1c1.2 0 2.4-.7 3.3.2.9.9 3.1 1.9 4.3 2.1 1.2.2 3.8-.2 4.3-.7.5-.5 2.6-1.5 2.6-.3s.3 2.9.3 2.9l6.1 5.7s-10.7 9.2-13.2 16.3c-2.4 7.1-3.6 10.7-3.6 10.7s-3.3 2.3-3.6 1.4c-.4-.9-1.7-2.3-2.3-1.5-.5.7.2 2.1-1.7 1.5-1.9-.5-2.3-.9-2.8-.5s-2.1 1.4-3.6 1.2c-1.6-.2-2.1-.5-2.3-1.9-.2-1.4-.7-4 .2-4.7.9-.7 3.8-1.7 3.5-2.6-.3-.9-2.4-2.9-1.5-3.8.9-.9 1.5-1.9 1.2-2.6-.4-.7-2.1-1.6-1.2-3.1.9-1.5 1.2-3.1 1.2-3.1l-1.9-1.9s-5 1.2-5.5 1.2-2.9-.9-4.3-.9-6.7 1-7.1 1.7c-.3.7.5 5.2-1.2 5.4-1.7.2-3.5.5-4.7.5-1.2 0-5.9-.5-6.2.5-.4 1 .3 1.9-.7 2.4s-4.8 3.7-5 5.5c-.2 1.9 0 10-.9 11.8-.9 1.7-1.2 4.5-2.6 5.2-1.4.7-3.8 1.6-3.8 1.6l.2 2.8s10.9.7 14 3.3c0 0-7.1 2.8-7.1 3.8s-.3 3.3.5 4.2c.9.9 4.5 4 4.5 4l-4.7 2.4.2 3.3 5.2.4 1.6 5.7-2.8 4.5s5-.4 5 1.4c0 1.7-.9 4.8-.2 5.9.7 1 2.8 2.4 3.6.9.9-1.6.2-5.4.2-5.4l2.6-.3s2.2 6.2 3.6 5.7 2.1-1.7 3.1-3.7c1-1.9 5.9-7.4 8.3-8.3 2.4-.9 4.9-1.9 4.9-1.9s8.3-1.9 13.3.3c0 0-2.6 18.5-5.1 31.1l-6.5.8-2.6 3.9s-3-5.6-6-5.6-11.6-2.1-15.5 0c-3.9 2.1-15.6 14.2-15.6 14.2L32 254.1v15l3.5.9-.4 7.3 9.5.4-.8 6.9 21 9.9-1.7 4.3s-8.6.9-9.4 4.3c-.9 3.4-.9 9-.9 9s-6-.9-5.6 2.2c.4 3 .9 5.6.9 5.6l17.2-2.4-.3-6.5 6.4 1.3-1.7 2.6 7.3 1v-2l3-.9s.4-1.8.7-3.1c.3-1.3-.6-.9-1.3-1-.8-.1-.9.5-1.7 1.3-.8.8-.7-2.5-.7-3s1.4-1.5 2.2-2.1c.8-.5 2.3 1.3 2.8 2.1s1.3-.2 1.4-.9c.1-.7-.3-4.7-.1-5.6.1-.9 7.5-8 7.5-8l.7-3.6 7.1-4.8s-.5 13.9-.8 22.1c-.1 2.4-.1 4.4-.1 5.3 0 4-.4 36.2.3 40.3.7 4 4.9 19.6 6.9 26 1.2 3.9 4.2 15 6.7 23.6l-13.7 3.9s4.3 4.7 3.9 8.2c-.4 3.4-1.3 8.6-1.3 8.6l-8.6-1.3.4-5.6-8.6 8.6-2.1 12.6 7.3 11.7H78.1l-2.6-13.9-12.9 21.4 19.8 9.4 3.4-6.9 6 5.2 15.5-24.9 5.2 4.7 8.6-9.9-6.4-4.3.6-16.3c2 3.8 15.6 21.8 18 24.8 2.5 3 8.4 12.5 8.1 16.1-.4 3.6 0 6.5 0 6.5l1.9 1.7-8.6 5.8 1.6 2.1s-5.1 3.9-4.4 9.2c0 0 2.7.8 3.5 1.5.8.8 5.8 5.6 6.7 7.4 0 0-11.7 6.5-15.7 6.6-4 .1-7.1-.1-7.9-1.5-.8-1.4-2.5-4-4.3-4.4-1.8-.4-5.7.5-5.7 2.3 0 1.8-.5 6.1-1.5 6.5-1 .4-5.3 1-6-1-.7-2.1-.8-6-.8-7.4 0-1.4.3-5.1-.4-5.8-.7-.8-1.3-1.4-1.3-1.4l-9.9 2s-.4 1.9-1.4 3.4c-1 1.4-3.9 3.1-3.9 3.1l-2.9-3.4s-2.2 4.8-3.1 5.6c-.9.8-3.4 2.1-2.8 3 .5.9 3.4 5.7 2.7 6.9-.7 1.2-2.1 1.5-3 2.3-.9.8-3.5 1.8-4 2.3-.5.5-3.4 4.3-4 5.2-.7.9-3.8 4.5-3.2 5.7.5 1.2 2.1 4.4 1 5.6-1 1.2-2.9 2.5-2.5 4 .4 1.6 1.6 3.1 2.6 3.4 1 .3 3.4 3.2 3.5 3.9.1.7.8 2.5 1.2 2.6.4.1 3.8 2.2 3.8 2.2s2.7-.8 3.8-1.4c1-.7 3.6-3.1 3.6-3.1l5.2 3.1 2.3.1 3.4 2.3-.5 3.1 2.7 3.2 2.8-1.4 2.7 2.3-.4 3.8 7.5 6.8 1.3-1.8-1.6-2.1 9.9-11 2 .4-.9 4.7s5.8 1.8 9.1.5l.7-3.8s7.4.4 10.3 2.2l1.4-6.7s.7-3.4 1.2-4c.5-.6 3-1.2 3.9-1.8.9-.7 1.4-4.8 1.4-5.5 0-.7.1-12.3.1-12.3s-1.7-.5-1.7-1.3-.8-2.2-1-3c-.2-.8 1.7-2.8 2.2-3.5.5-.7 0-4 0-4s-.8-1-2.1-2.3c-1.3-1.3.1-6.1.1-6.1s4.2-1.3 5.6-1.3c1.4 0 9.6-.5 9.6-.5l24.7 38.3 38.4 59.5s7.9 10.3 17.7 14.5c9.7 4.3 26.2 11.4 26.2 11.4s.9 1.7 1.3 2.2c.4.5.4 1 1 1.4.7.4 1.6 1.5 1.7 2.2.1.7 1.8 3.4 2.8 3.5 1 .1 2.9 1 2.6 1.8-.3.8-2.1 2-2.3 1.3-.3-.7-2.6-2.5-3.2-1.6-.7.9-1.8 2.2-2.8 2.3-1 .1-3.8-.5-4.7-.7-.9-.1-3.9.4-3.5 1.5.4 1.2 2.7 5.2 1.7 5.6-1 .4-2.5 2-1.7 2.5s6 3.4 7 3.5c1 .1 3.1 1 3.1 1s-.1 1.7.4 1.9c.5.3 3.2 1.8 3.2 1.8l.5 6.4-1.7 1.2.8 2.1 3.6 1.3-2.6 10.8-1.3-.1s-3.4 4.9-7 4c-3.6-.9-14-4.9-14-4.9s-12.6 10-13.5 10.9c-.9.9-2.7 4-4 5.8-1.3 1.8-6.6 5.3-10.1 6.9-3.5 1.5-8.8 2.2-10.5 2.2-1.7 0-3 .4-4.2.8-1.2.4-6.6 2.6-6.6 2.6s-.5 3.1-1.2 4.7c-.6 1.5-1.2 3.4-.5 4 .7.7 2.1 2.5 2.1 3.2 0 .8-.4 4.7.5 5.3.9.7 2.2.8 3.5-.1 1.3-.9 3.1-3.5 4.3-3.5 1.2 0 3.6.3 4.7.9 1 .6 5.6 3.2 7.7 3.2 2.1 0 8.4.3 9.7.4 1.3.1 7.1 1.9 7.9 2.7.8.8 1.7 3 2.1 3.5.4.5 1.7 1.7 3.1 2.1 1.4.4 4.7 1 5.5 2.2.8 1.2 9.2 9.7 9.2 9.7s-.3 3.6-1.3 4.2c-1 .5-2.2 1.3-2.2 2.1s-.5 3.9-.5 3.9-4.9-.3-4.9.7c0 .4-.2 1.7-.3 3h25.5l1.1-3.2-12.4-8c.7.2 11.7 3.6 17.4-6.4l13.4-.1-3.2 17.8h21.8l.4-4.1s-12.7-16.6-13.4-17.7c-.6-1-3.4-2.6-3.4-2.6s3.5-25.2 3.6-25.8c.1-.7 3.5-24.2 4-27.5.5-3.4 2.2-7.5 3.3-9.3 1-1.8 12.2-9.9 12.2-9.9s-1.3-3.3-2.3-6.2c-.3-1-.6-1.9-.8-2.6-.8-3 1.3-4.8 2.5-5.5 1.2-.7 2.7-.5 3.9-.4 0 0 46.1 3.5 56 4.3 9.9.8 15.2-4.3 15.2-4.3s32.1-21.4 46-30.6c13.9-9.2 50.4-44.6 51.9-46 .8-.7 3.3-3 5.7-5.3 2.2-2.1 4.3-4.2 4.9-4.9 1.3-1.5 21.7-24.4 31.8-37 10.1-12.6 6.9-24.7 5.8-29.9-1-5.2-6.6-30.1-6.6-30.1l22.2 18.2 7.9-23.5-4-4.9 3.4-4.7-6.6-8.7 2.1-2.6.2-.3 10.8 9.5s13.6-15.7 14.4-16.4c.8-.6 4.5-.8 6-.8 1 0 5.8-1.2 9.7-1.9l.5 7.7 8.8.5s-.6 7.2-.6 11.6c0 4.4 3.9-2.2 7.7-3.9 3.9-1.7-2.2 10.5-3.9 12.1-1.7 1.7-3.3 2.8-6.1 6.1s.6 7.7 2.8 8.3c2.2.6 2.2 8.3 2.2 8.3s18.8.5 24.9 0c6.1-.6 19.3 4.4 19.3 4.4s-2.2-8.3-2.8-12.7c-.5-4.4 0-8.3 0-12.7 0-4.4-6.6-5.5-9.9-7.7-3.3-2.2-3.3-6.1-3.3-6.1L654 433c0-3.9-7.7-6.6-11.6-8.3-3.9-1.7-3.9-7.7-3.9-7.7l21 3.9s-1.1-2.2-3.3-5c-2.2-2.8 1.1-2.8 3.9-5l.2-.2v-2c-1.6-1.6-4.9-2.6-7.1-2.6z"/><g opacity=".8"><path fill="#F4F3EE" d="M232.2 603.8l-8.3-8.8-9.5-11.7-35.2-54.2L0 606.5V751h294l15-84.9 3.9-28.1-29.4-11.7z"/><path fill="#EBE7DE" d="M0 631.4L119.3 751h1.1L0 630.3v1.1zm33.6-39.5L192.3 751h1.1l-159-159.4-.8.3zM0 651.5L99.3 751h1.1L0 650.4v1.1zm0-10L109.3 751h1.1L0 640.4v1.1zm0-21.1L130.3 751h1.1L0 619.3v1.1zM26.6 595l155.7 156h1.1l-156-156.4-.8.4zM0 609.4L141.3 751h1.1L0 608.3v1.1zM19.6 598l152.7 153h1.1l-153-153.4-.8.4zm-14 6l146.7 147h1.1L6.4 603.7l-.8.3zm7-3l149.7 150h1.1l-150-150.3-.8.3zM0 661.5L89.3 751h1.1L0 660.4v1.1zm0 73L16.5 751h1.1L0 733.3v1.2zm0 11l5.5 5.5h1.1L0 744.4v1.1zm198.4-186.8L172 532.2l-.8.3 29.3 29.3-2.1-3.1zM0 723.4L27.5 751h1.1L0 722.3v1.1zm179.2-194.3l-.3.1 1.2 1.2-.9-1.3zM0 671.6L79.3 751h1.1L0 670.5v1.1zm0 41.8L37.5 751h1.1L0 712.3v1.1zm0-30.8L68.3 751h1.1L0 681.5v1.1zm0 10L58.3 751h1.1L0 691.5v1.1zm0 11L47.3 751h1.1L0 702.5v1.1zm134.9-155.4l165.7 166 .2-1-165.2-165.3-.7.3zm6.9-3L302 705.7l.2-1-159.6-159.8-.8.3zm7-3l154.7 155 .2-1-154.1-154.3-.8.3zm-28.6 12.4l177.2 177.6.2-1-176.6-177-.8.4zm35.7-15.4L305 688.7l.2-1-148.6-148.9-.7.4zm-28.1 12.1L299 722.8l.2-1-170.6-170.9-.8.4zm122.4 60.4l58.1 58.3.2-1-56.3-56.4-2-.9zm-18-7.9l-3.7-3.8-64.3-64.4-.8.3 143.2 143.5.2-1-74.2-74.4-.4-.2zm37.6 16.5l40 40.1.1-1-38.1-38.2-2-.9zm19.3 8.3l-1.9-.7 23.7 23.8.1-1-21.9-22.1zm-175.9-71l182.7 183.1.2-1L114 557.3l-.8.3zm-7 3l188.2 188.6.2-1L107 560.3l-.8.3zm-36.9 15.9L243.4 751h1.1L70.1 576.2l-.8.3zm-7 3.1l171 171.4h1.1L63.1 579.2l-.8.4zm-7 3l168 168.4h1.1L56.1 582.3l-.8.3zm-14 6l162 162.4h1.1L42.1 588.3l-.8.3zm7-3l165 165.4h1.1L49.1 585.3l-.8.3zm28.6-12.4L254.3 751h1.1L77.7 572.9l-.8.3zm15.4-6.6l184 184.4h1.1L93.1 566.3l-.8.3zm7-3l187 187.4h1.1L100.1 563.3l-.8.3zm-14.7 6.3L265.3 751h1.1l-181-181.4-.8.3z"/></g><path opacity=".26" fill="none" stroke="#EBE7DE" stroke-width="2" stroke-miterlimit="10" d="M313.2 424.8l-29.5 88.9-49.4 76.4-51.8 37.8-28.5 29.2-16.3 26.1-9.1 16.7-16.8 16.8-27.9 23.6-4.6 10.7"/><path fill="#F3F2ED" d="M120 208.4l-6.6 39.5-.8 2.7L99.7 277l-1.2 2.9-2.4 7-1.6 31.9c-.9.4-.8 3.8 0 3.4l.6 31.4 6 20.2 1 3.4 8 28.1c-3.6.9-2.1 3.7 1.1 2.9l1.4 2.6 23.2 32.3 6.4 19 11.6 29.6 1.4 2.8 25 35.9 1.7 2.6 28.3 44.8 1.8 2.6 13 18.7.1.2 7.8 6.2 61.4 26.8 12.1 4.9.2.1 3 .4c.3 2.7 3.4 2.6 3.2.4l22.1 2.6 43.7 3.8h.2l8-1.2 9.8-5.3c2.2-1.1 4 1.1 2.7-1.5l2.4-1.3 34.2-23.1 2.6-1.8 20.2-15.2.1-.1 28.3-26.7 2.3-2.2 15-15.4 17.3-20.1 2.1-2.4 11.8-14.4.1-.1 5.7-10.9.6-3.1-1.2-15.9v-.1l-6.5-29.5-.9-4.2-.9-5.3c0-1.3.3-11.1 2-17.6.7-2.6 1.5-5.3 2.5-8.3 0-.1.1-.3.1-.4l2 .8 1.5-2.8-2.6-1c1.3-4.2 2.5-8.4 3-12 .8-5.5 2.6-34.8 3.3-46.4l.2-3.2c0-.8.1-1.3.1-1.5v-50.5l-.1-3.4-3.2-58.9-.2-3.4-1.5-12.2v-.1c-.1-.3-1.7-7.2-13.9-18.4-10.9-10-78.8-71.6-89.9-81.8l1.1-1.2c.4-.4-2-2.4-2-2.4l-1.4 1.5-16.6-14-.1-.1c-.3-.2-7.3-5.3-17.4-6.1-5.5-.4-11-.9-14.8-1.1l-3.2-.2c-1-.1-1.6-.1-1.7-.1-.2 0-19.9-1.7-31.6-5-10.6-3-38-15.7-43.4-18.2l-8-1.8h-8.3l-26.2 4.8c-.5 0-3.1-.2-3.2.8L242.6 86l-36.1 27.1-.6.2c.4-1.4-3.3.2-3.6 1.3l-7 3.9-11.2 3.5-11.9.7-3.6.8-3 1.2-18 9.7h-.1c-.3.2-8.6 5.1-11.4 7.8-2.8 2.7-10.2 12.4-10.5 12.8l-.1.2-.1.2c-.3.8-7.6 19.6-8.3 24.4-.1.8-.2 1.4-.3 2-.5 3.2-.8 4.8.4 8.6.6 2.1 1.3 3.9 1.8 5.3s.9 2.5 1.1 3.4c.2.9.3 3.9.3 6.3l-.4 3zm421.5 92l-102.3 36.5c-.2.1-19.7 6.9-30.7 10.4-1.5-3.6-3.9-7.8-4.6-9.1 0-3-.2-20.2-.7-23.2-.5-3.4-8.6-11.5-11.1-13.9l-.1-.1c-.3-.2-5.1-4.1-9.1-7.2l8.6-11.2 9.7-7.2 18.1-3.1h.1l42-13.8.2-.1c5.5-2.9 21-10.4 26-11 2.6-.3 6.5-.3 10.7-.4 5.9-.1 12.1-.1 15.7-.9 4.8-1 19.1-3.9 24.2-4.9l3.3 59.2zm-173.1 49.3c.4-3.2.8-6.7 1.1-9.4M327 382.8h-1.4l1.1-1.3.3 1.3zm-1.6-29.6l3.3 8.7-3.7 10-.1 4.9-9.7-5.5-2.8-1.6-9.1-5.1-3.5-12.3c0-1 .2-4.9.4-9l14-.4 3.6.4 4.8.7-.5 1.7 3.3 7.5zm33.9 16.5c1.5-1.8 2.9-3.5 4.2-5.1m-5.1 1.4c-4 4.8-8 9.3-9.5 10.1-2.8 1.5-12.4 2.3-15.9 2.6-.6 0-1.1.1-1.5.1-1.5.1-2.7-.1-3.5-.3l.1-5.9 4-10.6-4-10.6-4.6-10.2-8.3-1.3-14.9.4c.2-2.7.4-5.1.7-6.3.8-3.8 3.9-10.4 5-12.3.6-1.1 2.7-3.7 4.6-5.8l2.2-2.2c.2-.2.4-.4.6-.5 1.7-1.3 7.2-4.1 9.8-4.2.4 0 1-.1 1.7-.1 3.8-.2 10.8-.6 14 .1 3.6.7 9.2 1.9 10.1 2.2 1.1.5 7.8 3.5 9.8 4.4 1.6.8 5.4 5.2 7.4 7.9 1 1.3 1.2 7.9.7 12.4-.4 3.4-2.2 19.9-2.6 22.8-1.1 1.4-2.4 3-3.7 4.7l-2.2 2.6zm1.9-53.2l.8-1.3-.4 1.5c-.2-.1-.3-.1-.4-.2zm-12.1-38l.2-1.8c.4.5.8 1 1.1 1.4-.5.2-.9.4-1.3.4zm-4.5 31.9c-1.5-.3-3-.6-4.3-.9-3.6-.7-10.6-.4-14.8-.1-.7 0-1.2.1-1.7.1-1 0-2.2.3-3.4.7l-2.2-9.8-11.3-19.6 24.3-1.2c1.7.3 9.8 1.8 14.9 2.1h3.1c1.4-.2 3-.8 5-1.5 3.1-1.2 7.4-2.7 9.1-1.6 1.5 1 4.5 5.2 7.2 8.8 3.1 4.2 6 8.2 8 9.7.2.2.4.3.7.5L363 304.6l-1.1 3.7-4.5 3.1c-3.1-1.4-7.2-3.2-7.5-3.3l-.1-.1h-.2s-1.3-.3-3-.6l-2.9-.7zm-29.3-8.8l2.2 9.8c-2.2 1-4.3 2.2-5.3 3-.2.2-.5.4-.8.7l-12.7-12.9-13.8-11.2c1.7-2.4 3.4-4.8 4.9-7l.1-.2s1.6-2.9 3.5-2.9c3 .1 9.6 0 9.9 0h.1l11.9 20.7zM257.5 318c.2-.4.3-.8.4-1.1 1.4-3.2 5.4-7.8 7.4-8.4.6-.2 1.2-.3 1.8-.5 1.9-.4 3.9-.8 5-3.3.5-1.1 5.1-7.8 10-14.9l13.6 10.9 12.6 12.8c-2.1 2.3-4.3 5.1-5.1 6.4-.8 1.4-2.7 5.3-4.1 9.1l-1 3-.3 1.2c-.3 1.5-.6 4.2-.8 7.1l-7.1.2-.3.2c-10.3 5.8-28.3 15.7-35.1 19.5-.1-.4-.3-.8-.4-1.2-1.5-5.4-2.8-14.2-2.4-18.7.3-3.3 2.9-13.4 4.7-19.4l1.1-2.9zm27.4 80.7c-.5-.3-1-.5-1.6-.8-4.9-2.6-10.9-5.7-12.7-7.8-1.2-1.5-3.4-5.7-5-9.1l-1.1-2.6c-1.8-3.9-3.1-6.6-4.3-7.9-1.7-1.8-3.3-4.4-4.5-7.2 6-3.4 34.7-19.3 35.2-19.6l6-.2c-.2 4.5-.4 8.7-.4 9v.2l3.9 14 6.9 3.9 2.8 1.6 13.7 7.7-25.5 31.5c-2.3-3.4-5.2-7.6-7.7-9.4-.7-.5-1.7-1.1-3-1.8l-2.7-1.5zm80.8-36.8c.1-.1.2-.2.2-.3M333 418.8c-.4.1-.7.3-.9.7-.1.2-.3.4-.5.8-.9 1.6-3.8 6.4-6.5 6.3l-3.8-.1c-9.1-4.6-19.1-10-20.2-11.2-.2-.3-.6-.7-.9-1.2l23.1-28.5h7.2l-.7-3.7h.8c.4 0 .7 0 1.1-.1.4 0 .9-.1 1.4-.1.8-.1 1.5-.1 2.3-.2l4.7-.5c4.4-.5 8.2-1.2 10.2-2.3 1.4-.8 4-3.4 6.7-6.5l10.5-14.7c.1-1.2.3-2.9.5-4.8l1.8-15.6c0-.4.1-.8.1-1.1 0-.1 1.1-11.3-1.3-14.6 0-.1-2.7-3.7-5.4-6.3l2.5-8.7 15-10.7c3.9 3 8.8 7 9.4 7.5l.5.5.3.4 8.5 9.7s.7 1.2.8 1.6c.3 2.1.5 13.1.6 19.9l.4 4.3c.6 1.1 2.9 5.1 4.3 8.5l1.1 2.9c.3 1.1-.3 2.8-.9 4.7-1 3.2-2.3 7.3-.6 11.5l2.2 3.6c5.5 7.6 11 16.4 11.1 18.3-.6 1.1-4.5 3.2-8.6 5.3l-3.1 1.5c-1.8.9-3.5 1.7-4.8 2.3-3.8 1.8-7.1 3.3-8.9 4.5-2.9 1.7-8.7 6.6-14.3 11.4l-2.7 2.3c-3.4 2.9-7 6-7.9 6.5-1.7.3-11.3-1.2-18.4-2.3-2.6-.4-5.1-.8-7.4-1.1l-3.1-.4c-.1 0-.3 0-.4-.1-1-.1-1.9-.2-2.6-.3l-3.2.1zm39.6-54.8s0 .1 0 0m61-237.4c11.2 10.1 79 71.7 89.9 81.7 10.8 9.9 12.8 16.2 12.9 16.8l1.6 12.5v.5c-4.6.9-19.7 3.9-24.6 5-3.3.7-9.5.8-15.1.8-4.3 0-8.3.1-11 .4-6.4.7-25.2 10.3-27 11.2l-41.7 13.7-18.7 3.2-10.6 7.9-8.8 11.5c-.5-.3-.9-.7-1.3-.9-1.7-1.2-4.7-5.4-7.4-9.1-3.2-4.4-6-8.2-7.9-9.5-2.9-2-7.4-.4-11.4 1.1-1.4-1.7-3-3.9-3.8-4.8l3.9-36.3 29.7-46.8 15.5-19.7 20.8-17.6 14.1-20.7.9-.9zm-54 56.9c0 .4-.2.9-.4 1.3l-25.7 40.4-4 7L345 275c-3.8-.3-9.8-1.2-13.3-1.8H326l-20.4 1c-.9 0-1.8-.4-2.3-1.3l-2.2-3.7c-.2-.3-.3-.7-.3-1l-1.3-14.5c0-.2-.1-.4-.1-.5l-9-28.3c-.1-.2-.1-.5-.1-.8v-17.4c0-3.2-4.8-23.1-5.4-25.5-1-3.8-6.4-14.4-6.6-14.9l-.1-.2-.2-.2c-.1-.1-8-7.6-10.5-10-.3-.3-.6-.7-.7-1.1-.4-1.5-.8-5.4.1-15.9.3-3-1.2-6.9-2.7-10.7-.9-2.4-1.8-4.7-2-6.3-.4-2.9-.3-22.9-.2-36 0-1.2.9-2.2 2.1-2.5l24.2-4.4h8.1l2.9.5 8.7 3.1c9.9 4.5 30.1 13.6 39.1 16.2 12 3.4 31.4 5.1 32.2 5.1 0 0 .9.1 2.3.2l3.2.2c3.8.3 9 .7 14.1 1.1 8.8.7 15.2 5.1 15.8 5.5l16.5 13.8-.9 1-14 20.5-20.7 17.6-12.8 16.3-3.2 3.4zm-155.3 64.8l-42-16.4-28.3-13.2-30.6-11.9c0-2.1 0-6.3-.3-7.8-.2-1-.6-2.2-1.2-3.7-.5-1.4-1.1-3.2-1.7-5.2-.9-3.1-.8-4.1-.3-7.2.1-.6.2-1.3.3-2.1.5-3.6 5.9-18 8.1-23.5 1-1.3 7.6-10 10-12.3 2.5-2.4 10.3-7 10.8-7.3l18.4-9.9 3.2-1 1.8-.4 12.2-.7 11.9-3.7 7.7-4.3 3.7-1.1 36-27.1 15-5.1c-.1 9-.3 34 .2 37.6.3 2 1.2 4.4 2.2 7 1.3 3.3 2.7 7 2.5 9.3-1.3 14.8-.2 18 1.2 19.3 1.9 1.7 9.3 8.9 10.7 10.1.8 1.6 5.4 10.8 6.2 14 1.1 4.1 5.3 22.4 5.3 24.8v18.2l9.2 29.1 1.9 20.4h-5.8c-3.7-.2-6 3.7-6.4 4.5-.6.9-2.4 3.5-4.7 6.7l-31-24.9-.1-.1-21.9-10.4-4.2-1.7zm-108.8 4.2l.9-3.2L123 210l29.7 11.6 28.4 13.2 45.7 17.9 22 10.4 31 24.9c-4.5 6.5-9.7 14.1-10.4 15.5-.5 1-1.1 1.2-2.9 1.6-.6.1-1.3.3-2.1.5-3.5 1.1-8 6.8-9.4 10.2-.2.4-.3.9-.6 1.5l-27.6-6.8c-.8-.2-12.9-3.9-25.2-7.4-26-7.4-27.4-7-28.2-6.8-1.8.5-5.3 3.1-10.1 6.7-2 1.5-4.5 3.4-5.1 3.6-1.1.3-10.6.8-19.1 1-.1 0-6.2.1-9.4-2.9-2.9-2.7-10.7-15.7-13.5-20.5l-.3-.5-13.6-4.9 13.2-26.3zM170 389.2l-56.8 15.9-8.5-29.9-6.4-21.4-.6-32.1.1-3.1 1.5-30.5 2.2-6.5 12.7 4.6c1.7 2.9 10.2 17.5 13.8 20.8 4.1 3.8 11.2 3.7 11.6 3.7 4.2-.1 18.2-.6 20-1.2.8-.3 2.3-1.4 6-4.1 3-2.3 7.5-5.7 9-6.2h.1c3.5 0 33.4 8.6 51.6 14.1l27.5 6.8c-1.9 6.1-4.5 16.1-4.8 19.9-.4 5 1 14.1 2.5 19.8.2.7.4 1.3.6 1.9-3.6 1.3-51.9 17.4-78.8 26.5l-3.3 1zm-13.1 102.3l-11.7-29.7-6.5-19.4-23.3-32.5-1-1.8 57.9-16.2h.1c34.8-11.7 76.1-25.5 80.5-27 1.7 4.1 3.8 6.6 5 7.9.9 1 2.3 3.9 3.8 7.3l1.4 2.7c1.7 3.6 3.6 7.8 5.1 9.5 2.2 2.6 8.3 5.7 13.6 8.6.4.2.7.4 1.1.6l2.8 1.5c1.3.7 2.4 1.4 3.1 1.9 2.1 1.5 5 5.7 7.1 8.7.2.2.3.4.5.7l-76.3 84.6-16.7 13.7-2.6 2.1-17.9 14.7-24.3-34.9m54.1 81.8l-28.2-44.6 37.6-30.8.1-.1 72.4-80.3 4-3.4.3.3c2 2.2 18.1 10.4 21.3 12l.3.2 4.5.1h.2c3.1 0 5.7-2.8 7.4-5.2-.3 4.2-.5 8-.5 8.3v.1l2.4 23.3 4.1 19-7.1 15.9.6 51.2L313 611v.1c-.1.7-3.1 17.1-3.4 20.6-.1.9-.1 2.1 0 3.4l-2-.2-11.9-4.9-61-26.6-7.1-5.6-13.1-18.8-1.8-2.7zm151.6-79.8l2.4 16.5-2.5 21 7.1 13.7-4.3 1.8v1c0 .6.1 14.1.2 15.5.1 1.7 1.7 5.7 2.5 7.2 1.2 2.3 9.1 18 9.7 19.7.2.7.7 4.6 1 7.7.7 6.1 1.2 10.5 1.8 12.3 1 2.8 10 18 13 23l-9.4 5.1-7.1 1-43.5-3.8-22.7-2.7c-.1-1.3 0-2.5 0-3.5.3-3.3 3.1-19 3.4-20.2L335 543l.1-.2-.5-50.9 8.7-15-5.8-21.2-2.3-22.7c0-.4.1-2 .2-4.1l.3-6.5c0-2 5.4 2.1 5.7.3 2.5.4 5.2.8 7.7 1.2 14.4 2.2 18.8 2.8 20.2 2.1.9-.5 3.2-2.3 7.2-5.8.1.5.1 1 .1 1.3l-4.1 47.6-8.2 27.4zm47-128c-.3-.1-1.1-.2-2.1-.4 0-.1-.1-.1-.1-.2-2.6-3.8-1.5-7.6-.3-11.2.7-2.3 1.4-4.6.9-6.5 10.9-3.5 29.7-10.1 30.6-10.4l101.2-36.1v49.2c-.1 1.6-2.6 44.2-3.6 50.7-.5 3.3-1.6 7.2-2.8 11.3l-.9 3c-.1.2-.1.4-.2.6-.9 3-1.8 5.8-2.5 8.4-2 7.4-2.1 18.1-2.1 18.5v.1l.5 2.7.8 4.3 7 32.2 1.3 16.6-5.9 11.3-11.8 14.4-19.1 22.2-15.6 16-2.5 2.4-27.2 25.7-19.7 14.8-2.5 1.9-34.3 23.2-2.3 1.2c-5-8.4-12-20.5-12.8-22.5-.6-1.6-1.2-7.1-1.7-11.6-.5-4.7-.9-7.5-1.2-8.4-.7-2-9.3-18.9-9.9-20-.9-1.7-2.1-5.1-2.1-6 0-.9-.1-9.2-.2-14.3l5.5-2.3-8.3-15.9 2.3-19.4.6-6-.8-3.9c.2-3.7-.8-6-.6-6.7.1-.3-.7-1.6.2-3.7 2.4-5.4 4.5-10 4.8-11.2.6-2 2.1-14 2.6-18.6.5-5 3.4-39.3 3.2-42.7 0-.7-.2-2-.5-3.5 5.6-4.8 12.3-10.5 15.2-12.2 1.7-1 5.1-2.6 8.7-4.3 2.3-1.1 4.4-2.1 6.2-3l3.1-1.5c6.3-3.2 8.8-5.1 9-7 .4-2.8-5.3-11.6-9.6-17.7l-.5-3.5z"/><path fill="none" stroke="#EBE7DE" stroke-miterlimit="10" stroke-dasharray="2.9956,2.9956" d="M221.4 217.4s6.3-7.6 13.9-15c7.5-7.4 16.9-11.6 23.4-14.4 6.5-2.8 14-12.9 21.4-11.1 7.4 1.8 28.5 8.6 36.6 8 8.1-.6 30.3-2.2 38.1 0 7.7 2.2 12.2 5.4 28.4 12.2s30.1 17.2 35.5 20.4c5.4 3.2 29.1 9.8 32.8 19.7 3.7 10 4.4 20.1 3.1 29.7-1.3 9.6-5 16.3-2.6 29 2.3 12.7 3.2 27.8 3.2 38.7s0 5.2-5.6 17.3-12.6 29.3-14.9 33.5c-2.3 4.2-14.7 8.6-22 11.3s-20.1 11.6-25.8 14.8c-5.7 3.2-19.9 14.4-23.3 19.3-3.4 4.9-15 14.4-25.2 16.2-10.2 1.8-20.9-1.6-27.2-12.5-6.3-10.9-16.6-15.9-21.2-22.1-5.3-7-18.3-12.2-20.8-14.3-2.5-2.1-7.8-11.6-11.5-17.4-3.7-5.8-13.3-28.2-15.5-37.9-2.2-9.7-5-24.4-8.6-31.5-3.6-7-7.6-5.4-6.1-15.5s-8.3-28.3-9.6-35.7c-1.4-7.4-9.4-17.7-8.9-23.7.3-6 12.4-19 12.4-19z" opacity=".49"/></svg>