<svg xmlns="http://www.w3.org/2000/svg" xmlns:xlink="http://www.w3.org/1999/xlink" viewBox="0 0 338 417.4"><style>.st0{fill:#faf9f6}.st1{fill:none;stroke:#d6d2c9;stroke-width:.5;stroke-miterlimit:10}.st2{opacity:.6;fill:#7ebb48;enable-background:new}</style><g id="background_color"><path class="st0" d="M26.2 261.4l1.5 1.8s1.5-.9 2.1-1.7c.6-.8.8-1.8.8-1.8l5.3-1s.3.4.7.8.2 2.4.2 3.1c0 .8.1 2.8.4 4 .4 1.1 2.6.8 3.2.6.6-.2.8-2.5.8-3.5s2.1-1.5 3.1-1.3c1 .2 1.9 1.6 2.3 2.4.4.8 2.1.9 4.3.8 2.2-.1 8.4-3.5 8.4-3.5-.5-1-3.2-3.6-3.6-4-.4-.4-1.9-.8-1.9-.8-.4-2.9 2.4-5 2.4-5l-.8-1.1 4.6-3.1-1-.9s-.2-1.5 0-3.5-3-7-4.3-8.7c-1.3-1.6-8.6-11.3-9.7-13.3l-.3 8.8 3.5 2.3-4.6 5.3-2.8-2.5-8.3 13.4-3.2-2.8-1.8 3.7-10.6-5.1 6.9-11.5 1.4 7.4H31l-3.9-6.2 1.1-6.7 4.6-4.6-.2 3 4.6.7s.5-2.8.7-4.6c.2-1.8-2.1-4.4-2.1-4.4l7.3-2.1c-1.4-4.7-2.9-10.6-3.6-12.7-1-3.4-3.3-11.8-3.7-14-.3-2.2-.1-19.4-.1-21.6 0-.5 0-1.5.1-2.8l2.3 2.2 4.8-.3 2 1.1s8.5-.4 10.7-1.3l2-2.9s8.7 2 11.7 1.2c3.1-.8 5.8-2.7 7.5-2.4s2.9 1.4 3.8 3.4c.9 2 2.1 4.3 2.7 5.3.6 1.1 1.3 2.5 1.2 3.4-.1.9-1.3 4.5-2.4 5.6-1.2 1.1-3.1 3.5-5.3 3.9-2.3.4-5.4 1.8-5.8 2.2-.3.4-2.6 2.3-.2 4.3s6.6 5.8 10.4 4c3.8-1.8 9-4.8 8.9-11.5-.1-6.7-.3-11.4 1.4-12.1 1.7-.7 2.6-.6 2.6-.6 1.8-.1 3.9-.3 6.6 1.9 2.8 2.1 5 3.5 5.9 4.1.6.4 1.9 1.2 2.9 2.3.5.6.9 1.2 1.1 1.9 0 0 1.8 6.9 2.8 8.3.9 1.4 5 5.1 8.9 2.3 3.9-2.8 7.5-6.3 9.4-6.9 1.9-.6 7-1.7 7.4 1.9.4 3.6.1 7.6-2.7 11-2.8 3.4-7.3 7.3-9.3 8.8-2.1 1.5-5.1 3.6-4.3 7.5.7 3.7 3.7 9.4 9.1 9v.1s-10.6 14-11.7 15.2c-1.1 1.2-11.8 11.6-11.8 11.6l5.9 5.5-7.7 9.6-25.8 22.3-.1.1-13.3-20.6s-4.4.3-5.2.3c-.8 0-3 .7-3 .7s-.8 2.6-.1 3.3c.7.7 1.1 1.3 1.1 1.3s.3 1.8 0 2.2c-.3.3-1.3 1.5-1.2 1.9.1.4.6 1.2.6 1.6s.9.7.9.7-.1 6.3-.1 6.6c0 .4-.3 2.6-.8 2.9-.5.3-1.8.6-2.1 1-.3.3-.6 2.2-.6 2.2l-.8 3.6c-1.5-1-5.5-1.2-5.5-1.2l-.4 2c-1.7.7-4.9-.3-4.9-.3l.7-2.9-1-.2-5.3 5.9.8 1.1-.7 1-4-3.6.2-2-1.5-1.3-1.5.8-1.5-1.7.3-1.7L30 289l-1.3-.1-2.8-1.7s-1.4 1.3-2 1.7c-.6.4-2 .8-2 .8s-1.8-1.1-2-1.2c-.2-.1-.6-1-.6-1.4-.1-.3-1.3-2-1.9-2.1-.6-.1-1.2-1-1.4-1.8-.2-.8.8-1.5 1.3-2.2.6-.6-.3-2.4-.6-3-.3-.6 1.4-2.6 1.7-3.1.4-.5 1.9-2.5 2.2-2.8.3-.3 1.7-.8 2.2-1.3.5-.4 1.3-.6 1.6-1.3.4-.6-1.2-3.2-1.5-3.7-.3-.5 1-1.2 1.5-1.6.6-.2 1.8-2.8 1.8-2.8z"/><path class="st0" d="M127.9 403.9c-.6 0-3 1-3.3 1.1-.3.1-1.6-.1-1.9-.2-.3-.1-.8.3-1.1.3-.3 0-1.7-.7-2.1-.8-.4-.1-.5.5-1.1 1-.5.5-.8.2-1.3.1s0-2.9 0-3.4 2.6-.4 2.6-.4.3-1.7.3-2.1c0-.4.6-.8 1.2-1.1.6-.3.7-2.2.7-2.2s-4.5-4.6-5-5.2c-.4-.6-2.2-1-2.9-1.2-.8-.2-1.5-.8-1.7-1.1-.2-.3-.7-1.5-1.1-1.9-.4-.4-3.5-1.4-4.3-1.5-.7-.1-4.1-.2-5.2-.2-1.1 0-3.6-1.4-4.1-1.7-.6-.3-1.9-.5-2.5-.5-.6 0-1.6 1.4-2.3 1.9-.7.5-1.4.4-1.9.1-.5-.3-.3-2.4-.3-2.9 0-.4-.8-1.4-1.1-1.7-.3-.4-.1-1.3.3-2.2.4-.8.6-2.5.6-2.5s2.9-1.2 3.6-1.4c.6-.2 1.3-.4 2.2-.4.9 0 3.8-.3 5.7-1.2 1.9-.8 4.7-2.7 5.4-3.7.7-1 1.7-2.7 2.2-3.1.5-.5 7.3-5.8 7.3-5.8s5.6 2.2 7.5 2.7c1.9.5 3.8-2.2 3.8-2.2l.7.1 1.4-5.8-2-.7-.4-1.1.9-.6-.3-3.4s-1.5-.8-1.7-1c-.3-.1-.2-1-.2-1s-1.1-.5-1.7-.6c-.6-.1-3.4-1.6-3.8-1.9-.4-.3.4-1.1.9-1.3.6-.2-.7-2.4-.9-3-.2-.6 1.4-.9 1.9-.8.5.1 1.9.4 2.5.3.6-.1 1.2-.8 1.5-1.3.3-.5 1.6.5 1.7.8.1.4 1.1-.3 1.3-.7.1-.4-.8-.9-1.4-1-.5-.1-1.5-1.5-1.5-1.9-.1-.3-.6-1-.9-1.2-.3-.2-.3-.5-.5-.8-.2-.3-.7-1.2-.7-1.2s-8.9-3.8-14.1-6.1c-5.2-2.3-9.5-7.8-9.5-7.8l-20.6-31.9.1-.1 25.8-22.3 7.7-9.6-5.9-5.5s10.7-10.4 11.8-11.6c1.1-1.2 11.7-15.2 11.7-15.2v-.1c.4 0 .8-.1 1.2-.2 6.2-1.4 7.8-3.5 7.8-3.5s1.6 2.1 3.1 4c1.1 1.5 2.1 2.9 2.4 3.3.5 1 3.2 5.8 3.9 7.7.8 1.8 4.1 6.2 4.8 6.8l-.2 3.8 1.9 1.1 2.3-.4.8 3.5s-1.3 1.4-1.3 1.9c-.1.5-.2 1.2-.6 1.7-.4.5-2.7 2-2.8 2.6-.1.6-.4 1.1-.1 1.7.3.6.7.8.7.8l.1 2 2.4 2.6-2.1-.3-.5 1.5s2.3.9 3.4 1l-3.8 6.1.1 13.2s-5.3.2-6.7-.4c-1.4-.6-5.8-3-5.8-3l-.9 1.3s2.3 1.2 1.8 3.3c-.5 2.1-.6 2.4-.6 2.4l-1.6 1.8-.3 1.6 4.4 1.1-2.8 7.6s-2 .4-2.3 1c-.3.6-1.2 2.2-.5 2.2s1.8-.9 1.6-.3c-.2.7-.6 1.4-.1 1.6.5.2.8.4.6.8-.3.3-.5.8-.5 1.3 0 .6.1 1.1-.3 1.3-.4.3-.6.4-.6.9s.6 3.3-.3 3.4c-.9.2-2.8.3-2.2 1.4.6 1.2.5 1.9.9 1.8.4-.1.9-.3.9-.3l1.3 2 1.5-.1-1.1 5.2 1.7.6s-.3 1.8-1.5 1.8l-.9 6.3.9 1.8-1.9 5.2 9.1 3.8 2.9 5.8v2l1.2-.2h.1c.5 1.5 1.2 3.3 1.2 3.3s-6 4.3-6.5 5.3c-.6 1-1.5 3.2-1.8 5-.3 1.8-2.1 14.4-2.2 14.8-.1.3-2 13.9-2 13.9s1.5.8 1.8 1.4c.3.6 7.2 9.5 7.2 9.5l-.2 2.3 3.6 3.2-.5 1.4.1 2.2-1.5 1.5-.3 1.1-3 2.4-.9-1.3-1 .7.7 1.9-9.9-7.3 2.8-15.5-7.2.1c-3 5.4-8.9 3.6-9.3 3.4l6.7 4.3-.7 2.1s-2 .1-2.6.1z"/><path class="st0" d="M112.9 176l1 1.3 6.4-3.5.9-3 4.6-5.4s10.9-1.8 14.3-2.1c3.4-.4 4.9-5 4.9-5l1.4-9.6 5.4-.4 1.5 6.5 1.4-.1 3.8 1.9 1.4-.1s.9-1.3 1-2.4c.1-1.1-.1-6.3-.1-6.3l9 1.3.4-5.6s1.4 1 2.4 1.8 2.6 1.6 3 2.6c.3.9.6 2.2 2.5 3.1.3.1.6.3 1 .4 2.9.9 18 5.9 18 5.9s5.1-.1 7 .3c1.9.4 2.9 1.1 4.1 3.4.3.6.8 1.5 1.4 2.6l-8 7.5-2.5-2.4-1.9.3s-.6 2.5-1 3.8c-.4 1.3-1.1 4.9-1.1 4.9l-5.9.3s-1.3.6-1 1.6.9 3 .9 3.5-.1 1.3-.9 2.3l5.3 2.4s6.8 4.8 8.1 6.4c0 0 0 4.5.5 5.1l-2.5 5.8-5-4.5.3 2.5-3 2.3-4.4 2.4-2.1-5.1-2.4 1.4s.8 1.9 1.2 3.5h-.1l-2.8.2s-1-1.8-1.5-2.2l-.9.9-3.3-1.4s-1.1 3.8-1 5.9l-1 .3-2.5-1.3-.5 1.8s-.9-.9-2.2-.5c-1.3.4-8.2 2.2-8.2 2.2l-.3-.8-2.3-.3-.3 1.7-4.7-1.6-8.7 10.5c-1.5-2-3.1-4-3.1-4s-1.7 2.1-7.8 3.5c-.4.1-.8.2-1.2.2-5.4.4-8.4-5.4-9.1-9-.8-3.9 2.3-6 4.3-7.5 2.1-1.5 6.6-5.3 9.3-8.8 2.8-3.4 3.1-7.4 2.7-11-.4-3.6-5.5-2.5-7.4-1.9-1.9.6-5.5 4.1-9.4 6.9-3.9 2.8-8-.8-8.9-2.3-.9-1.4-2.8-8.3-2.8-8.3-.2-.7-.6-1.3-1.1-1.9l.1-.1 3.4-2.8z"/><path class="st0" d="M283.6 239.2l2.2 2.7-4.3 12.6-11.9-9.8s3 13.4 3.6 16.2c.6 2.8 2.3 9.3-3.1 16-5.4 6.8-16.4 19-17.1 19.9-.3.4-1.5 1.5-2.6 2.6-1.1-.8-3.2-2.7-3.5-4.7-.4-2-1.9-6.9-1.9-8.6s0-6.4.1-8.9-1.4-1.1-2.9-.9-13.1 6.1-15.1 6.9-7.9 0-9.6-.3-5.9 1.1-7.6 1.3c-1.8.1-7.9-2.6-10.1-3.9s-11.4-8.9-11.4-8.9 1-9.8 1.8-11.9c.8-2.1 13.3-7.8 16.6-9.6 3.4-1.9 2.6-7.5 1.8-10-.9-2.5-6.3-5-7.9-5.8-1.6-.8-8.3-1.8-9.4-2-1.1-.3-1.5-.5-1.9-1.3-.4-.8-3.1-1.3-3.1-1.3s.3-2.1.4-3.5c.1-1.4-1.1-7.9-1.5-10.3-.4-2.4-.6-5.9-.6-7.1 0-.4-.2-1.1-.4-1.9-.5-1.6-1.2-3.5-1.2-3.5l2.4-1.4 2.1 5.1 4.4-2.4 3-2.3-.3-2.5 5 4.5 2.5-5.8c-.5-.6-.5-5.1-.5-5.1-1.4-1.6-8.1-6.4-8.1-6.4l-5.3-2.4c.8-1 .9-1.8.9-2.3s-.6-2.5-.9-3.5 1-1.6 1-1.6l5.9-.3s.8-3.6 1.1-4.9c.4-1.3 1-3.8 1-3.8l1.9-.3 2.5 2.4 8-7.5c1.7 3.3 4 8.3 3.5 10-.8 2.3-3.4 10.1.9 12.2 4.3 2.1 9 4.8 10.4 6.4 1.4 1.6 3.1 4 4.1 4.1 1 .1 5.1 1.1 6.9 2.4s8.6 7.3 10.5 8.1c1.9.9 14.3 8.5 16.4 9.5 2.1 1 18.1 11.8 21 14.5l-1.1 1.4 3.5 4.7-2.1 3.2zm41.6-27.2l.9 4.4 4.5-.9s1.5 2.7 3.3 2.7c1.8 0 5 1.2 3.6 2.4-1.5 1.2-3.3 1.2-2.1 2.7 1.2 1.5 1.8 2.7 1.8 2.7l-11.3-2.1s0 3.3 2.1 4.1c2.1.9 6.2 2.4 6.2 4.5l-7.7 1.5s0 2.1 1.8 3.3c1.8 1.2 5.3 1.8 5.3 4.2 0 2.4-.3 4.5 0 6.8.3 2.4 1.5 6.8 1.5 6.8s-7.1-2.7-10.4-2.4c-3.3.3-13.4 0-13.4 0s0-4.1-1.2-4.5c-1.2-.3-3-2.7-1.5-4.4 1.5-1.8 2.4-2.4 3.3-3.3.9-.9 4.1-7.4 2.1-6.5-2.1.9-4.1 4.4-4.1 2.1 0-2.4.3-6.2.3-6.2l-4.8-.3-.3-4.1s4.7 0 7.1-1.2c2.4-1.2 3-5.3 3.3-7.7.3-2.4 5.3-1.2 5.3-1.2l3.6-4.4.2-.1c.2.3.5.8.6 1.1z"/><path class="st0" d="M152.9 346.6c.1.4.3.9.4 1.4h-.1l-1.2.2v-2l-2.9-5.8-9.1-3.8 1.9-5.2-.9-1.8.9-6.3c1.2-.1 1.5-1.8 1.5-1.8l-1.7-.6 1.1-5.2-1.5.1-1.3-2s-.5.3-.9.3c-.4.1-.3-.7-.9-1.8-.6-1.2 1.3-1.3 2.2-1.4.9-.2.3-2.9.3-3.4s.2-.7.6-.9c.4-.3.3-.8.3-1.3 0-.6.3-1 .5-1.3.3-.3-.1-.6-.6-.8-.5-.2-.1-.9.1-1.6.2-.7-.9.3-1.6.3-.7 0 .2-1.6.5-2.2.3-.6 2.3-1 2.3-1l2.8-7.6-4.4-1.1.3-1.6 1.6-1.8s.1-.3.6-2.4-1.8-3.3-1.8-3.3l.8-1.5s4.4 2.4 5.8 3c1.4.6 6.7.4 6.7.4l-.1-13.2 3.8-6.1c-1.2-.1-3.4-1-3.4-1l.5-1.5 2.1.3-2.4-2.6-.1-2s-.3-.3-.7-.8c-.3-.6 0-1.1.1-1.7.1-.6 2.3-2.1 2.8-2.6.4-.5.5-1.2.6-1.7.1-.5 1.3-1.9 1.3-1.9l-.8-3.5-2.3.4-1.9-1.1.2-3.8c-.8-.6-4.1-4.9-4.8-6.8-.8-1.8-3.4-6.7-3.9-7.7-.2-.4-1.2-1.8-2.4-3.3l8.7-10.5 4.7 1.6.3-1.7 2.3.3.3.8s6.9-1.8 8.2-2.2c1.3-.4 2.2.5 2.2.5l.5-1.8 2.5 1.3 1-.3c-.1-2.1 1-5.9 1-5.9l3.3 1.4.9-.9c.5.4 1.5 2.2 1.5 2.2l2.8-.2h.1c.2.8.4 1.5.4 1.9 0 1.3.3 4.8.6 7.1.4 2.4 1.6 8.9 1.5 10.3-.1 1.4-.4 3.5-.4 3.5s2.8.5 3.1 1.3c.4.8.8 1 1.9 1.3 1.1.3 7.8 1.3 9.4 2 1.6.8 7 3.3 7.9 5.8.9 2.5 1.6 8.1-1.8 10-3.4 1.9-15.9 7.5-16.6 9.6-.8 2.1-1.8 11.9-1.8 11.9s9.1 7.6 11.4 8.9 8.4 4 10.1 3.9c1.8-.1 5.9-1.5 7.6-1.3s7.6 1 9.6.3 13.6-6.6 15.1-6.9 3-1.6 2.9.9c-.1 2.5-.1 7.1-.1 8.9s1.5 6.6 1.9 8.6c.4 2 2.4 3.9 3.5 4.7-1.3 1.2-2.6 2.5-3.1 2.9-.8.7-20.4 19.7-27.9 24.7s-24.7 16.5-24.7 16.5-2.9 2.7-8.2 2.3c-5.3-.4-30-2.3-30-2.3-.6-.1-1.5-.1-2.1.2-.7.2-1.8 1.2-1.4 2.8zM297.4 124s1.5.2 2.8.6c1.3.4 2.6.6 2.6 2.9 0 2.2-2.4 2-2.9 1.9-.5-.1-.1-.7 0-1.4s-.6-.8-1.1-1.3c-.5-.5-3.5 0-4.3 0-.8 0-1.1 3.8-1.1 3.8l-3.5 1.7-.1 1.7-1.3.4.1 1.1-2.6.8-2.4-2.5-2.3 2.3-5.7-6.3 5.4-4.3s.6-.7 1-1.2c.5-.5 5.3-2.2 5.3-2.2l-.3-2.2 3.3-1.4.6 1s-2.1.9-2.3 1.7c-.2.8.9 2.2.9 2.2l2.9-.6.5 1.3 4-1.3.5 1.3z"/><path class="st0" d="M197.9 94.1l-2.8-1.6 1.3-1.8 2.8 1 .9 2-.8.8 1.4 1.7c-1.7 1.1-.1 2.9-.1 2.9l1.8-.8 1.8.9 5.2.6.4-.4 1.8-2c1.8-2 1.1-5.8.9-7-.2-1.3-.5-3.5-.5-3.5l-9.8-.1 4.4-3.6-.6-.8 6.4-6.3-1-.8.6-1.2 2.8 1.8 3.3-1.4-.3-1.8 2.2-2.2c7.7 7.2 23.5 21.9 23.5 21.9l23 21s5.6 5.6 6.1 11.2c.6 5.6 2.4 39.8 2.4 39.8s.1 6.6.1 8.6c-.1 2 .6 18.2.6 18.2s12.5-1 18.4-4.5l3.5 1.2.9 5.4-5.3-.5-3.1 3.8s-3.8.4-5.3 2.2c-1.5 1.8-4.5 8.3-2.7 9.8 1.8 1.5 5 2.4 5 2.4l4.8.1-.2 1.9 4.1.3.2-2 .8-1.4 1 1.1 1.5-.8 2.5-.2 4.4-1.7.7.7s3.6-1.3 3.8-2.2c.3-.9.6-2.9 1.3-3.1.7-.3 2.7-.5 2.7-.5s4.3 1.9 5.5 2.9c.9.8 2.9 3.2 4 4.9l-.2.1-3.6 4.4s-5-1.2-5.3 1.2c-.3 2.4-.9 6.5-3.3 7.7-2.4 1.2-7.1 1.2-7.1 1.2-2.1.4-4.7 1-5.2 1-.8 0-2.8.1-3.2.4-.4.4-7.7 8.8-7.7 8.8l-5.8-5.1-.1.1c-2.9-2.8-18.9-13.5-21-14.5-2.1-1-14.5-8.6-16.4-9.5-1.9-.9-8.8-6.9-10.5-8.1s-5.9-2.3-6.9-2.4c-1-.1-2.8-2.5-4.1-4.1-1.4-1.6-6.1-4.3-10.4-6.4-4.3-2.1-1.6-10-.9-12.2.6-1.7-1.8-6.7-3.5-10-.6-1.1-1.1-2.1-1.4-2.6-1.3-2.3-2.3-3-4.1-3.4-1.9-.4-7-.3-7-.3s-15.1-5-18-5.9c-.4-.1-.7-.2-1-.4v-9.3s6.1-13.4 6.6-14.6c.5-1.2 2.8-6.1 3.3-8.1.5-1.9-.1-12.1-.1-12.1.8.5 2 .3 2.9-.3.9-.5 1.1-2.6 1.1-2.6l6.6-6.5-1.8-1.2 1.8-2.2zM27.7 161.6c-.1.5.1 2.6.1 3-.1.4-.5.9-.8.5-.3-.4-1.1-1.4-1.5-1.1-.4.3-1.2.8-1.2 1.1 0 .3-.1 2 .4 1.6.4-.4.5-.8.9-.7.4.1.8-.1.7.6-.1.7-.4 1.7-.4 1.7l-1.7.5v1.1l-3.8-.6 1-1.4-3.4-.7.1 3.5-9.2 1.3s-.2-1.4-.5-3c-.2-1.6 3-1.2 3-1.2s0-3 .5-4.8c.5-1.8 5.1-2.3 5.1-2.3l.9-2.3-11.3-5.3.5-3.7-5.2-.4.2-3.9-1.8-.5v-8.1l20.3 2.1s6.2-6.5 8.3-7.6c2.1-1.1 6.7 0 8.3 0 1.6 0 3.2 3 3.2 3l1.4-2.1 3.5-.4c1.3-6.8 2.8-16.7 2.8-16.7-2.7-1.2-7.2-.2-7.2-.2s-1.3.6-2.6 1c-1.3.5-3.9 3.4-4.5 4.5-.6 1-.9 1.7-1.7 2-.8.3-2-3.1-2-3.1l-1.4.2s.4 2-.1 2.9c-.5.8-1.6.1-2-.5-.4-.6.1-2.2.1-3.2 0-.9-2.7-.7-2.7-.7l1.5-2.4-.8-3.1-2.8-.2-.1-1.8 2.5-1.3s-1.9-1.7-2.4-2.1c-.5-.5-.3-1.7-.3-2.2 0-.6 3.8-2 3.8-2-1.7-1.4-7.5-1.8-7.5-1.8l-.1-1.5s1.3-.5 2-.8c.7-.4.9-1.9 1.4-2.8.5-.9.4-5.3.5-6.3.1-1 2.1-2.7 2.7-3 .6-.3.2-.7.4-1.3.2-.6 2.7-.3 3.3-.3s1.6-.2 2.5-.3c.9-.1.5-2.5.6-2.9.2-.4 3.1-.9 3.8-.9.8 0 2 .5 2.3.5.3 0 3-.6 3-.6l1 1s-.2.8-.7 1.7c-.5.8.5 1.3.7 1.7.2.4-.2.9-.7 1.4-.5.5.7 1.6.8 2.1.2.5-1.4 1-1.9 1.4-.5.4-.2 1.8-.1 2.5.1.8.4.9 1.2 1 .8.1 1.7-.5 1.9-.7.3-.2.5 0 1.5.3s.6-.5.9-.8c.3-.4 1 .4 1.2.8.2.5 1.9-.7 1.9-.7s.6-1.9 2-5.8c1.3-3.8 7.1-8.7 7.1-8.7l-3.3-3.1s-.2-.9-.2-1.6c0-.6-1.1-.1-1.4.2-.3.3-1.7.5-2.3.4-.7-.1-1.9-.7-2.3-1.1-.5-.5-1.1-.1-1.8-.1-.6 0-3.4-.6-3.4-.6l-.9-1.2c-.3-.5-2.4-.5-2.9-1.1-.5-.6-1.3-1.6-1.9-2.6-.6-1 .9-1.9 1.3-2.1.4-.3.3-1.3-.1-1.8s-.6-1.3-.6-1.8 1.3-1.6 1.9-2.1c.7-.6.1-1.2-.6-2s-2.6.2-3.4.4c-.7.2-1.3-1.9-1.3-2.1s.5-1 .8-1.4c.4-.4-1.2-1.5-1.9-1.9-.6-.5-.8-1.3-.6-1.7.3-.4 3.5-1.3 3.5-1.3l.1-1.3-.8-.7-.5-1.5 1.8-1.3h.1l3.9-2.4.4-1.3 2.6-1.6-.5 1.8 4.2.3-.1 6.4s-.1 2.1 1.7 2.5c1.7.4 2.1.6 2.1.6l3.1 8s.3 1.4.3 2.2c-.1.8-.2 2.6.8 3.3 1 .7 2 1.3 2 1.3l-.3 3.5 3 1.2.5 1 5.6.9 3.6-1.6.5 1.3.8-.3.1.1s4.6 5.6 5.8 6.2c1.2.6 2.4 1.1 2.4 1.1s0 3.7.4 4.8c.4 1.1 12 29.2 12 30 0 .8-.1 2.1-1.8 2.3l1.3 1.8 6.6-.3 1.2 2.6s-4.1 3.3-3.5 7.3c.6 4 1.8 5.8 2.1 6.7.3.9 5.8 11.5 6.5 15.2.7 3.7 1.2 11.3 2.1 13.3.8 1.9 7.2 13.9 7.2 13.9l-3.5 2.3-.1.1c-1-1.1-2.3-1.9-2.9-2.3-.9-.6-3.1-2-5.9-4.1-2.8-2.1-4.9-2-6.6-1.9 0 0-.9 0-2.6.6-1.7.7-1.5 5.3-1.4 12.1.1 6.8-5.1 9.7-8.9 11.5-3.8 1.8-8-2-10.4-4-2.4-2-.2-3.9.2-4.3.3-.4 3.5-1.8 5.8-2.2 2.3-.4 4.2-2.8 5.3-3.9 1.2-1.1 2.3-4.7 2.4-5.6.1-.9-.6-2.3-1.2-3.4s-1.8-3.3-2.7-5.3c-.9-2-2.1-3.2-3.8-3.4s-4.4 1.6-7.5 2.4c-3.1.8-11.7-1.2-11.7-1.2l-2 2.9c-2.2.8-10.7 1.3-10.7 1.3l-2-1.1-4.8.3-2.3-2.2c.1-4.4.4-11.9.4-11.9l-3.8 2.6-.4 2c-.1-.6-4.1 3.3-4.2 3.8z"/><path class="st0" d="M132.9 6.1l1 8.7 2.6.3.1 4.9-1.5.8-.3 1.7-2.1.3s.1 4.5-.4 7.6c-.6 3.1-2.2 12.7-2.2 12.7s9.5-2.3 13.5-1.4c4 .9 18.8 8.4 21.5 9.4 2.8 1 13.8 4.4 23.5 4.7 9.7.3 13.6.8 15.5 1.8 2 1 10.4 7.8 11.9 9.3.3.3 1.8 1.7 4 3.7l-2.2 2.2.3 1.8-3.3 1.4-2.8-1.8-.6 1.2 1 .8-6.4 6.3.6.8-4.4 3.6 9.8.1s.3 2.3.5 3.5c.2 1.3.9 5-.9 7l-1.8 2-.4.4-5.2-.6-1.8-.9-1.8.8s-1.6-1.8.1-2.9l-1.4-1.7.8-.8-.9-2-2.8-1-1.3 1.8 2.8 1.6-1.5 2.2 1.8 1.2-6.6 6.5s-.2 2.1-1.1 2.6c-.9.5-2.1.8-2.9.3 0 0 .6 10.2.1 12.1-.5 1.9-2.8 6.9-3.3 8.1-.5 1.2-6.6 14.6-6.6 14.6v9.3c-1.9-.9-2.2-2.3-2.5-3.1-.4-1-2-1.9-3-2.6s-2.4-1.8-2.4-1.8l-.4 5.6-9-1.3s.3 5.1.1 6.3c-.1 1.1-1 2.4-1 2.4l-1.4.1-3.8-1.9-1.4.1-1.5-6.5-5.4.4-2.1-2.6s-.1-4.1-.1-5.6c-.1-1.5-1.6-6.2-1.6-6.2l3.5-1-3.5-2.5s-1.1-5-1.3-6.3c-.3-1.3-1.1-2.7-1.3-3.5-.2-.8.2-5.7.2-7.7s1.9-8 1.9-8c-.3-.9-2.4-8.7-2.7-10-.3-1.3-.1-7.8-.1-8.8.1-1-2.4-11.5-2.7-13.4-.3-1.9-1.1-11.2-1.5-13.5-.3-2.3-4.1-4.3-4.1-4.3s-.3.1-.6.1-1.4-1.3-1.9-1.7c-.5-.4-6.7-4.4-6.7-4.4l-1.6-4.3-8.6-30.8 12.5-2.7-2.4-7.6 6.6-1.6 2.4 2.4 7.7-4.5 1.3 2.2 2-.2s2.5 4.9-.6 4.8c0 0-1.6-.1-2.4-.7-.9-.6-5.5-.3-5.5-.3z"/><path class="st0" d="M144.2 146l2.1 2.6-1.4 9.6s-1.5 4.6-4.9 5c-3.4.4-14.3 2.1-14.3 2.1l-4.6 5.4-.9 3-6.4 3.5-1-1.3s-6.3-12-7.2-13.9c-.8-1.9-1.4-9.6-2.1-13.3-.7-3.7-6.2-14.3-6.5-15.2-.3-.9-1.5-2.7-2.1-6.7-.6-4 3.5-7.3 3.5-7.3l-1.2-2.6-6.6.3-1.3-1.8c1.7-.2 1.8-1.4 1.8-2.3 0-.8-11.6-28.9-12-30-.4-1.1-.4-4.8-.4-4.8s-1.3-.5-2.4-1.1c-1.2-.6-5.8-6.2-5.8-6.2l-.1-.1.6-.2 1.7-4.1c11.2 1.6 17.7-3.4 20-4.8C95 60.4 109 50.3 113.4 47c4.3-3.1 6.3-2.6 6.5-2.5l1.6 4.3s6.3 4 6.7 4.4c.5.4 1.5 1.7 1.9 1.7.3 0 .6-.1.6-.1s3.7 2.1 4.1 4.3c.3 2.3 1.1 11.6 1.5 13.5.3 1.9 2.8 12.4 2.7 13.4-.1 1-.2 7.5.1 8.8.3 1.3 2.3 9.1 2.7 10 0 0-1.9 6-1.9 8s-.4 6.9-.2 7.7c.2.8 1 2.3 1.3 3.5.3 1.3 1.3 6.3 1.3 6.3l3.5 2.5-3.5 1s1.5 4.7 1.6 6.2c.3 1.9.3 6 .3 6zM24.9 2.9l2 2.4 1.3.4 2.3-4.1 7.8.2 1.3.6s-.4 1-.6 1.6c-.2.6 2.8 2.5 3.6 2.4.8-.1.4-.6.4-1.4 0-.8.5-.5 1.2-.4.8 0 .5-.2.8-.6.3-.5.5.1 1.5.7s.6.5 1.2.5c.5.1.3.8-.1 1.5-.4.6.1 1 1 1.5s2-.9 2.5-1.3 2.7-.8 3.8-1.1c1.1-.3.6-1.5.5-2.1-.1-.7 1.1-.2 1.5.3.4.4 1.1-.6 1.1-.6l1.8-.1 2 2.4.5.7v2.9l-1.7.1s-.8 1.9-3.2 1.7L54.6 18s2.2 4.6 2 5.5c-.2.9-.8 2.6-.5 3.1.3.5 1.1 2.7.9 3-.2.4-1.1 1.6-1.8 1.1-.7-.6-1-1.5-1-1.5l-3.6-.4L49 33l3 4.3-5 3.7v.1l-4.2-.3.5-1.8-2.6 1.6-.5 1.4-3.9 2.4h-.1c-.1-.4-1.1-4.6-1.7-5.4-.6-.9 1.9-2.1 1.9-2.1l-.4-1.2c.8-.9 4.3-2.1 4.3-2.1l-10.7-7.9s-2.9 2.3-3.4 2.7c-.5.4-1.9.5-2.8.3-.9-.3-.6-1.2-.8-2-.2-.8-3.5-4.1-3.5-4.1l.7-2.9 3.5-3 3.3 2 1.6-1.8-5.4-6.2h-1.3l-1.7-4.4.1-2.9L22.8 1l3.3-.4.6 1.1-1.8 1.2z"/><path class="st1" d="M333.8 218.2c-1.8 0-3.3-2.7-3.3-2.7l-4.5.9-.9-4.4c-.1-.4-.4-.8-.7-1.4-1.1-1.8-3.1-4.1-4-4.9-1.2-1-5.5-2.9-5.5-2.9s-2 .3-2.7.5c-.7.3-1 2.2-1.3 3.1-.3.9-3.8 2.2-3.8 2.2l-.7-.7-4.4 1.7-2.5.2-1.5.8-1-1.1-.8 1.4-.2 2-4.1-.3.2-1.9-4.8-.1s-3.3-.9-5-2.4c-1.8-1.5 1.2-8 2.7-9.8 1.5-1.8 5.3-2.2 5.3-2.2l3.1-3.8 5.3.5-.9-5.4-3.5-1.2c-5.9 3.6-18.4 4.5-18.4 4.5s-.6-16.2-.6-18.2c.1-2-.1-8.6-.1-8.6s-1.8-34.2-2.4-39.8c-.5-5.6-6.1-11.2-6.1-11.2l-23-21s-15.9-14.7-23.5-21.9c-2.2-2-3.7-3.4-4-3.7-1.5-1.5-9.9-8.2-11.9-9.3-2-1-5.9-1.5-15.5-1.8-9.7-.3-20.7-3.7-23.5-4.7-2.8-1-17.6-8.5-21.5-9.4-4-.9-13.5 1.4-13.5 1.4s1.6-9.5 2.2-12.7c.6-3.1.4-7.6.4-7.6l2.1-.3.3-1.7 1.5-.8-.1-4.9-2.6-.3-1-8.7s4.5-.3 5.3.3c.8.6 2.4.7 2.4.7 3.1.1.6-4.8.6-4.8l-2 .2L138 .3l-7.7 4.5-2.4-2.4-6.5 1.6 2.7 7.6-12.5 2.7 8.6 30.8c-.2-.1-2.2-.6-6.5 2.5C109.2 50.9 95.3 61 93 62.4c-2.3 1.4-8.8 6.4-20 4.8l-1.7 4.1-.6.2-.8.3-.5-1.3-3.7 1.5-5.6-.9-.5-1-3-1.2.1-3.7s-1-.6-2-1.3c-1-.7-.8-2.5-.8-3.3.1-.8-.3-2.2-.3-2.2l-3.1-8s-.3-.1-2.1-.6c-1.8-.4-1.7-2.5-1.7-2.5l.1-6.4v.1l5-3.6L49 33l1.7-4.2 3.6.4s.4.9 1 1.5c.7.6 1.6-.7 1.8-1.1.2-.3-.6-2.5-.9-3-.3-.5.3-2.2.5-3.1.2-.9-2-5.5-2-5.5l2.8-6.9c2.4.1 3.2-1.7 3.2-1.7l1.7-.1V6.4l-.5-.7-2-2.4-1.9.1s-.8 1-1.1.6c-.4-.5-1.6-.9-1.5-.3.1.6.6 1.9-.5 2.1-1.1.3-3.3.8-3.8 1.1-.6.4-1.6 1.8-2.5 1.3-.9-.5-1.4-.8-1-1.5.4-.7.6-1.4.1-1.5-.6-.1-.2.1-1.2-.5-1-.7-1.2-1.2-1.5-.8-.3.5 0 .6-.7.6-.8-.1-1.2-.5-1.2.4 0 .8.5 1.3-.4 1.4-.8.1-3.8-1.9-3.6-2.4.2-.6.6-1.6.6-1.6l-1.3-.6-7.8-.2-2.3 4.1-1.3-.4-2-2.4 1.8-1.2-.6-1.1-3.3.4L20 3.3l-.1 2.9 1.7 4.4h1.3l5.4 6.2-1.6 1.8-3.3-2-3.5 3-.7 2.9s3.4 3.3 3.5 4.1c.2.8-.1 1.8.8 2 .9.3 2.3.1 2.8-.3s3.4-2.7 3.4-2.7l10.7 7.9s-3.5 1.2-4.3 2.1l.4 1.2s-2.4 1.2-1.9 2.1c.5.9 1.6 5 1.7 5.4l-1.8 1.3.5 1.5 1.5.5-.1 1.4s-3.3.9-3.5 1.3c-.3.4-.1 1.2.6 1.7s2.2 1.6 1.9 1.9c-.4.4-.8 1.1-.8 1.4s.6 2.3 1.3 2.1c.8-.2 2.7-1.1 3.4-.4.6.7 1.2 1.4.6 2-.6.6-1.9 1.7-1.9 2.1 0 .5.3 1.3.6 1.8.4.5.5 1.5.1 1.8-.4.3-1.9 1.1-1.3 2.1.6 1 1.4 2 1.9 2.6.5.6 2.6.6 2.9 1.1.3.5.9 1.2.9 1.2s2.8.6 3.4.6c.6 0 1.3-.4 1.8.1s1.7 1 2.3 1.1c.6.1 2-.1 2.3-.4.3-.3 1.4-.8 1.4-.2s.2 1.6.2 1.6l3.3 3.1s-5.8 4.9-7.1 8.7c-1.3 3.8-2 5.8-2 5.8s-1.8 1.2-1.9.7c-.2-.5-.9-1.2-1.2-.8-.3.4.1 1.1-.9.8-1-.3-1.2-.5-1.5-.3-.3.2-1.1.8-1.9.7-.8-.1-1.1-.3-1.2-1-.1-.7-.4-2.1.1-2.5.5-.4 2-.9 1.9-1.4-.2-.5-1.3-1.6-.8-2.1s.8-1 .7-1.4c-.2-.4-1.1-.8-.7-1.7.5-.8.7-1.7.7-1.7l-1-1s-2.7.6-3 .6c-.3 0-1.6-.5-2.3-.5-.7 0-3.6.6-3.8.9-.2.4.3 2.8-.6 2.9-.9.1-1.9.3-2.5.3-.6 0-3.2-.3-3.3.3-.2.6.2 1-.4 1.3-.6.3-2.6 2-2.7 3-.1 1 0 5.4-.5 6.3-.5.9-.6 2.4-1.4 2.8-.8.4-2 .8-2 .8l.1 1.5s5.9.4 7.5 1.8c0 0-3.8 1.5-3.8 2 0 .6-.2 1.8.3 2.2.5.5 2.4 2.1 2.4 2.1l-2.5 1.3.1 1.8 2.8.2.8 3.1-1.5 2.4s2.7-.2 2.7.7c0 .9-.5 2.6-.1 3.2.4.6 1.5 1.3 2 .5s.1-2.9.1-2.9l1.4-.2s1.2 3.3 2 3.1c.7-.3 1.1-.9 1.7-2 .6-1 3.2-4 4.5-4.5l2.6-1s4.5-1 7.2.2c0 0-1.4 9.9-2.8 16.7l-3.5.4-1.4 2.1s-1.6-3-3.2-3-6.2-1.1-8.3 0c-2.1 1.1-8.3 7.6-8.3 7.6L1 136.3v8.1l1.8.5-.9 4.1 5.1.2-.5 3.7 11.3 5.3-.9 2.3s-4.6.5-5.1 2.3c-.5 1.8-.5 4.8-.5 4.8s-3.2-.5-3 1.2c.2 1.6.5 3 .5 3l9.3-1.3-.1-3.5 3.4.7-1 1.4 3.8.6v-1.1l1.7-.5s.3-1 .4-1.7c.1-.7-.3-.5-.7-.6-.4-.1-.5.3-.9.7-.4.4-.4-1.3-.4-1.6 0-.3.8-.8 1.2-1.1.4-.3 1.3.7 1.5 1.1.3.4.7-.1.8-.5.1-.4-.1-2.5-.1-3 .1-.5 4-4.3 4-4.3l.4-2 3.8-2.6s-.3 7.5-.4 11.9c0 1.3-.1 2.3-.1 2.8 0 2.2-.2 19.5.1 21.6.4 2.2 2.7 10.5 3.7 14 .6 2.1 2.2 8 3.6 12.7l-7.3 2.1s2.3 2.5 2.1 4.4c-.2 1.9-.7 4.6-.7 4.6l-4.6-.7.2-3-4.6 4.6-1.1 6.7 3.9 6.2h-5.8l-1.4-7.4-6.9 11.5 10.6 5.1 1.8-3.7 3.2 2.8 8.3-13.4 2.8 2.5 4.6-5.3-3.5-2.3.3-8.8c1.1 2 8.4 11.7 9.7 13.3 1.3 1.6 4.5 6.7 4.3 8.7-.2 1.9 0 3.5 0 3.5l1 .9-4.6 3.1.8 1.1s-2.7 2.1-2.4 5c0 0 1.5.4 1.9.8.4.4 3.1 3 3.6 4 0 0-6.3 3.5-8.4 3.5-2.2.1-3.8-.1-4.3-.8-.4-.8-1.3-2.2-2.3-2.4-1-.2-3.1.3-3.1 1.3s-.3 3.3-.8 3.5c-.6.2-2.9.6-3.2-.6s-.4-3.2-.4-4c0-.8.1-2.7-.2-3.1-.4-.4-.7-.8-.7-.8l-5.3 1s-.2 1-.8 1.8c-.6.8-2.1 1.7-2.1 1.7l-1.5-1.8s-1.2 2.6-1.7 3c-.5.4-1.8 1.1-1.5 1.6.3.5 1.8 3.1 1.5 3.7-.4.6-1.1.8-1.6 1.3-.5.4-1.9 1-2.2 1.3-.3.3-1.8 2.3-2.2 2.8-.4.5-2 2.4-1.7 3.1.3.6 1.1 2.4.6 3-.6.6-1.5 1.3-1.3 2.2.2.8.8 1.7 1.4 1.8.6.1 1.8 1.7 1.9 2.1.1.3.4 1.3.6 1.4.2.1 2 1.2 2 1.2s1.5-.4 2-.8c.6-.3 2-1.7 2-1.7l2.8 1.7 1.3.1 1.8 1.3-.3 1.7 1.5 1.7 1.5-.8 1.5 1.3-.2 2 4 3.6.7-1-.8-1.1 5.3-5.9 1 .2-.5 2.5s3.1 1 4.9.3l.4-2s4 .2 5.5 1.2l.8-3.6s.3-1.8.6-2.2c.3-.3 1.6-.6 2.1-1s.8-2.6.8-2.9c0-.3.1-6.6.1-6.6s-.9-.3-.9-.7c0-.4-.4-1.2-.6-1.6-.1-.4.9-1.5 1.2-1.9.3-.4 0-2.2 0-2.2s-.4-.6-1.1-1.3c-.7-.7.1-3.3.1-3.3s2.2-.7 3-.7c.8 0 5.2-.3 5.2-.3l13.3 20.6 20.6 31.9s4.3 5.5 9.5 7.8 14.1 6.1 14.1 6.1.5.9.7 1.2c.2.3.2.6.5.8.4.2.8.8.9 1.2.1.3 1 1.8 1.5 1.9.6.1 1.5.6 1.4 1-.1.4-1.1 1-1.3.7-.1-.3-1.4-1.3-1.7-.8-.4.5-1 1.2-1.5 1.3-.6.1-2-.3-2.5-.3-.5-.1-2.1.2-1.9.8.2.6 1.5 2.8.9 3-.6.2-1.3 1-.9 1.3.4.3 3.2 1.8 3.8 1.9.6.1 1.7.6 1.7.6s-.1.9.2 1c.3.1 1.7 1 1.7 1l.3 3.4-.9.6.4 1.1 2 .7-1.4 5.8-.7-.1s-1.8 2.6-3.8 2.2c-2-.5-7.5-2.7-7.5-2.7s-6.8 5.4-7.3 5.8c-.5.5-1.5 2.2-2.2 3.1-.7 1-3.6 2.9-5.4 3.7-1.9.8-4.7 1.2-5.7 1.2-.9 0-1.6.2-2.2.4-.6.2-3.6 1.4-3.6 1.4s-.3 1.7-.6 2.5-.6 1.8-.3 2.2c.4.3 1.1 1.3 1.1 1.7 0 .4-.2 2.5.3 2.9.5.4 1.2.4 1.9-.1s1.7-1.9 2.3-1.9c.6 0 2 .1 2.5.5.6.3 3 1.7 4.1 1.7 1.1 0 4.5.1 5.2.2.7.1 3.8 1 4.3 1.5.4.4.9 1.6 1.1 1.9.2.3.9.9 1.7 1.1.8.2 2.5.6 2.9 1.2.4.6 5 5.2 5 5.2s-.1 2-.7 2.2c-.5.3-1.2.7-1.2 1.1 0 .4-.3 2.1-.3 2.1s-2.6-.1-2.6.4-.5 3.3 0 3.4c.5.1.8.4 1.3-.1.6-.5.6-1.1 1.1-1 .4.1 1.8.8 2.1.8.3 0 .8-.4 1.1-.3.3.1 1.5.3 1.9.2.4-.1 2.7-1.1 3.3-1.1.6 0 2.6-.1 2.6-.1l.7-2.1-6.7-4.3c.4.1 6.3 2 9.3-3.4l7.2-.1-2.8 15.5 9.9 7.3-.7-1.9 1-.7.9 1.3 3-2.4.3-1.1 1.5-1.5-.1-2.2.5-1.4-3.6-3.2.2-2.3s-6.8-8.9-7.2-9.5c-.3-.5-1.8-1.4-1.8-1.4s1.9-13.5 2-13.9c.1-.4 1.9-13 2.2-14.8.3-1.8 1.2-4 1.8-5 .6-1 6.5-5.3 6.5-5.3s-.7-1.8-1.2-3.3c-.2-.5-.3-1-.4-1.4-.4-1.6.7-2.6 1.3-2.9.6-.3 1.5-.3 2.1-.2 0 0 24.8 1.9 30 2.3 5.3.4 8.2-2.3 8.2-2.3s17.2-11.5 24.7-16.5 27.1-24 27.9-24.7c.4-.4 1.8-1.6 3.1-2.9 1.2-1.1 2.3-2.2 2.6-2.6.7-.8 11.7-13.1 17.1-19.9 5.4-6.8 3.7-13.3 3.1-16-.6-2.8-3.6-16.2-3.6-16.2l11.9 9.8 4.3-12.6-2.2-2.7 1.8-2.5-3.5-4.7 1.1-1.4.1-.1 5.8 5.1s7.3-8.4 7.7-8.8c.4-.3 2.4-.4 3.2-.4.5 0 3.1-.6 5.2-1l.3 4.1 4.8.3s-.3 3.9-.3 6.2c0 2.4 2.1-1.2 4.1-2.1 2.1-.9-1.2 5.6-2.1 6.5-.9.9-1.8 1.5-3.3 3.3-1.5 1.8.3 4.1 1.5 4.4 1.2.3 1.2 4.5 1.2 4.5s10.1.3 13.4 0c3.3-.3 10.4 2.4 10.4 2.4s-1.2-4.5-1.5-6.8c-.3-2.4 0-4.4 0-6.8s-3.6-3-5.3-4.2c-1.8-1.2-1.8-3.3-1.8-3.3l7.7-1.5c0-2.1-4.2-3.6-6.2-4.5-2.1-.9-2.1-4.1-2.1-4.1l11.3 2.1s-.6-1.2-1.8-2.7c-1.2-1.5.6-1.5 2.1-2.7 1.5-.8-1.7-2-3.5-2zm-50.1-84.4l2.4 2.5 2.6-.8-.1-1.1 1.3-.4.1-1.7 3.5-1.7s.4-3.8 1.1-3.8c.8 0 3.8-.5 4.3 0s1.2.6 1.1 1.3c-.1.7-.5 1.3 0 1.4.5.1 2.9.3 2.9-1.9 0-2.2-1.3-2.4-2.6-2.9-1.3-.4-2.8-.6-2.8-.6l-.4-1.3-4 1.3-.5-1.3-2.9.6s-1.1-1.4-.9-2.2c.2-.8 2.3-1.7 2.3-1.7l-.6-1-3.3 1.4.3 2.2s-4.8 1.7-5.3 2.2c-.5.5-1 1.2-1 1.2l-5.4 4.3 5.7 6.3 2.2-2.3z"/></g><g id="outline"><g id="okrug_1_"><path class="st1" d="M109.4 178.3l3.5-2.3 1 1.3 6.4-3.5.9-3 4.6-5.4s10.9-1.8 14.3-2.1 4.9-5 4.9-5l1.4-9.6 5.4-.4 1.5 6.5 1.4-.1 3.8 1.9 1.4-.1s.9-1.3 1-2.4-.1-6.3-.1-6.3l9 1.3.4-5.6s1.4 1 2.4 1.8 2.6 1.6 3 2.6.6 2.6 3.5 3.5 18 5.9 18 5.9 5.1-.1 7 .3 2.9 1.1 4.1 3.4 5.6 10.4 4.9 12.6-3.4 10.1.9 12.3 9 4.8 10.4 6.4 3.1 4 4.1 4.1 5.1 1.1 6.9 2.4 8.6 7.3 10.5 8.1 14.3 8.5 16.4 9.5 18.1 11.8 21 14.5"/><path class="st1" d="M209.3 163.4l-8 7.5-2.5-2.4-1.9.3s-.6 2.5-1 3.8-1.1 4.9-1.1 4.9l-5.9.3s-1.3.6-1 1.6.9 3 .9 3.5-.1 1.3-.9 2.3l5.3 2.4s6.7 4.8 8.1 6.4c0 0 0 4.5.5 5.1l-2.5 5.8-5-4.5.3 2.5-3 2.3-4.4 2.4-2.1-5.1-2.4 1.4s1.6 4.1 1.6 5.4.3 4.8.6 7.1 1.6 8.9 1.5 10.3-.4 3.5-.4 3.5 2.8.5 3.1 1.3.8 1 1.9 1.3 7.8 1.3 9.4 2c1.6.8 7 3.3 7.9 5.8s1.6 8.1-1.8 10-15.9 7.5-16.6 9.6-1.8 11.9-1.8 11.9 9.1 7.6 11.4 8.9c2.2 1.3 8.4 4 10.1 3.9s5.9-1.5 7.6-1.3 7.6 1 9.6.3 13.6-6.6 15.1-6.9 3-1.6 2.9.9-.1 7.1-.1 8.9 1.5 6.6 1.9 8.6 2.5 4 3.6 4.8m-118.5-78.1s-10.6 14-11.7 15.2c-1.1 1.2-11.8 11.6-11.8 11.6l5.9 5.5-7.7 9.6-25.8 22.3"/><path class="st1" d="M35.5 164.6l2.3 2.2 4.8-.3 2 1.1s8.5-.4 10.7-1.3l2-2.9s8.7 2 11.7 1.2c3.1-.8 5.8-2.7 7.5-2.4s2.9 1.4 3.8 3.4 2.1 4.2 2.7 5.3 1.3 2.5 1.2 3.4c-.1.9-1.3 4.5-2.4 5.6s-3.1 3.5-5.3 3.9c-2.3.4-5.4 1.8-5.8 2.2-.3.4-2.6 2.3-.2 4.3s6.6 5.8 10.4 4c3.8-1.8 9-4.8 8.9-11.5-.1-6.8-.3-11.4 1.4-12.1 1.7-.7 2.6-.6 2.6-.6 1.8-.1 3.9-.3 6.6 1.9s5 3.5 5.9 4.1 3.4 2.1 4 4.3c0 0 1.8 6.9 2.8 8.3.9 1.4 5 5.1 8.9 2.3 3.9-2.8 7.5-6.3 9.4-6.9 1.9-.6 7-1.7 7.4 1.9.4 3.6.1 7.6-2.7 11-2.8 3.4-7.3 7.3-9.3 8.8s-5.1 3.6-4.3 7.5c.8 3.9 4.1 10.3 10.3 8.8 6.2-1.4 7.8-3.5 7.8-3.5s4.9 6.3 5.4 7.3 3.2 5.8 3.9 7.7 4.1 6.2 4.8 6.8l-.2 3.8 1.9 1.1 2.3-.4.8 3.5s-1.3 1.4-1.3 1.9c-.1.5-.2 1.2-.6 1.7-.4.5-2.7 2-2.8 2.6-.1.6-.4 1.1-.1 1.7.3.6.7.8.7.8l.1 2 2.4 2.6-2.1-.3-.5 1.5s2.2.9 3.4 1l-3.8 6.1.1 13.2s-5.2.2-6.7-.4c-1.4-.6-5.8-3-5.8-3l-.5 1.2s2.3 1.2 1.8 3.3c-.5 2.1-.6 2.4-.6 2.4l-1.6 1.8-.3 1.6 4.4 1.1-2.7 7.6s-2 .4-2.3 1c-.3.6-1.2 2.2-.5 2.2s1.8-.9 1.6-.3c-.2.7-.6 1.4-.1 1.6.5.2.8.4.6.8-.3.3-.5.7-.5 1.3 0 .6.1 1.1-.3 1.3s-.6.4-.6.9.6 3.3-.3 3.4c-.9.2-2.8.3-2.2 1.4.6 1.2.5 1.9.9 1.8.4-.1.9-.3.9-.3l1.3 2 1.5-.1-1.1 5.2 1.7.6s-.3 1.8-1.5 1.8l-.9 6.3.9 1.8-1.9 5.2 9.1 3.8 2.9 5.8v2l1.2-.2"/><path class="st1" d="M70.7 71.6s4.6 5.6 5.8 6.2 2.4 1.1 2.4 1.1 0 3.7.4 4.8c.4 1.1 12 29.2 12 30 0 .8-.1 2.1-1.8 2.3l1.3 1.8 6.6-.3 1.2 2.6s-4.1 3.3-3.5 7.3 1.7 5.8 2.1 6.7c.3.9 5.8 11.5 6.5 15.2.7 3.7 1.3 11.3 2.1 13.3.8 1.9 7.2 13.9 7.2 13.9M120.2 45l1.6 4.3s6.3 4 6.7 4.4c.5.4 1.5 1.7 1.9 1.7.3 0 .6-.1.6-.1s3.7 2.1 4.1 4.3c.3 2.3 1.1 11.6 1.5 13.5.3 1.9 2.8 12.4 2.7 13.4-.1 1-.2 7.5.1 8.8.3 1.3 2.3 9.1 2.7 10 0 0-1.9 6-1.9 8s-.4 6.9-.2 7.7 1 2.3 1.3 3.5 1.3 6.3 1.3 6.3l3.5 2.5-3.5 1s1.5 4.7 1.6 6.2c.1 1.5.1 5.6.1 5.6l2.1 2.6m73.7-78.2l-2.2 2.2.3 1.8-3.3 1.4-2.8-1.8-.6 1.2 1 .8-6.4 6.3.6.8-4.4 3.6 9.8.1s.3 2.3.5 3.5.9 5-.9 7l-1.8 2-.4.4-5.2-.6-1.8-.9-1.8.8s-1.6-1.8.1-2.9l-1.4-1.7.7-.8-.9-2-2.8-1-1.3 1.8 2.8 1.6-1.5 2.2 1.8 1.2-6.6 6.5s-.2 2.1-1.1 2.6-2.1.8-2.9.3c0 0 .6 10.2.1 12.1s-2.8 6.9-3.3 8.1c-.5 1.2-6.6 14.6-6.6 14.6v9.3m6.1 56.1l-2.8.2s-1-1.7-1.5-2.2l-.9.9-3.3-1.4s-1.1 3.8-1 5.9l-1 .3-2.5-1.3-.5 1.8s-.9-.9-2.2-.5c-1.3.4-8.2 2.2-8.2 2.2l-.3-.8-2.3-.3-.3 1.7-4.7-1.6-8.8 10.6M47 41.1l-4.3-.3.5-1.8-2.7 1.6-.3 1.4-3.9 2.4m288 166.4l-3.6 4.4s-5-1.2-5.3 1.2c-.3 2.4-.9 6.5-3.3 7.7-2.4 1.2-7.1 1.2-7.1 1.2"/></g></g><g id="Слой_4"><circle id="Ellipse_4_copy_3" class="st2" cx="111.5" cy="176" r="9.5"/><circle id="Ellipse_4_copy_3_1_" class="st2" cx="141.2" cy="207.4" r="9.5"/><circle id="Ellipse_4_copy_3_2_" class="st2" cx="106.2" cy="222.1" r="9.5"/><circle id="Ellipse_4_copy_3_4_" class="st2" cx="196.2" cy="145.8" r="9.5"/><circle id="Ellipse_4_copy_3_3_" class="st2" cx="141.2" cy="306.1" r="9.5"/></g></svg>